<?xml version="1.0" encoding="utf-8" standalone="no"?>
<!DOCTYPE svg PUBLIC "-//W3C//DTD SVG 1.1//EN"
  "http://www.w3.org/Graphics/SVG/1.1/DTD/svg11.dtd">
<svg xmlns:xlink="http://www.w3.org/1999/xlink" width="720pt" height="432pt" viewBox="0 0 720 432" xmlns="http://www.w3.org/2000/svg" version="1.1">
 <metadata>
  <rdf:RDF xmlns:dc="http://purl.org/dc/elements/1.1/" xmlns:cc="http://creativecommons.org/ns#" xmlns:rdf="http://www.w3.org/1999/02/22-rdf-syntax-ns#">
   <cc:Work>
    <dc:type rdf:resource="http://purl.org/dc/dcmitype/StillImage"/>
    <dc:date>2026-06-21T04:48:43.513535</dc:date>
    <dc:format>image/svg+xml</dc:format>
    <dc:creator>
     <cc:Agent>
      <dc:title>Matplotlib v3.10.8, https://matplotlib.org/</dc:title>
     </cc:Agent>
    </dc:creator>
   </cc:Work>
  </rdf:RDF>
 </metadata>
 <defs>
  <style type="text/css">*{stroke-linejoin: round; stroke-linecap: butt}</style>
 </defs>
 <g id="figure_1">
  <g id="patch_1">
   <path d="M 0 432 
L 720 432 
L 720 0 
L 0 0 
z
" style="fill: #ffffff"/>
  </g>
  <g id="axes_1">
   <g id="patch_2">
    <path d="M 54.335156 403.791309 
L 704.330859 403.791309 
L 704.330859 31.9875 
L 54.335156 31.9875 
z
" style="fill: #ffffff"/>
   </g>
   <g id="line2d_1">
    <path d="M 282.182636 403.791309 
L 282.182636 31.9875 
" clip-path="url(#p252b21bb4e)" style="fill: none; stroke-dasharray: 5.55,2.4; stroke-dashoffset: 0; stroke: #787878; stroke-width: 1.5"/>
   </g>
   <g id="line2d_2">
    <path d="M 462.420201 403.791309 
L 462.420201 31.9875 
" clip-path="url(#p252b21bb4e)" style="fill: none; stroke-dasharray: 5.55,2.4; stroke-dashoffset: 0; stroke: #787878; stroke-width: 1.5"/>
   </g>
   <g id="matplotlib.axis_1">
    <g id="xtick_1">
     <g id="line2d_3">
      <defs>
       <path id="m5e79f28f76" d="M 0 0 
L 0 -3.5 
" style="stroke: #000000; stroke-width: 0.8"/>
      </defs>
      <g>
       <use xlink:href="#m5e79f28f76" x="54.335156" y="403.791309" style="stroke: #000000; stroke-width: 0.8"/>
      </g>
     </g>
     <g id="line2d_4">
      <defs>
       <path id="md8dcb55231" d="M 0 0 
L 0 3.5 
" style="stroke: #000000; stroke-width: 0.8"/>
      </defs>
      <g>
       <use xlink:href="#md8dcb55231" x="54.335156" y="31.9875" style="stroke: #000000; stroke-width: 0.8"/>
      </g>
     </g>
     <g id="text_1">
      <!-- Γ -->
      <g transform="translate(49.477813 417.929121) scale(0.14 -0.14)">
       <defs>
        <path id="DejaVuSerif-393" d="M 1581 331 
L 2328 331 
L 2328 0 
L 353 0 
L 353 331 
L 947 331 
L 947 4331 
L 353 4331 
L 353 4666 
L 4172 4666 
L 4172 3625 
L 3788 3625 
L 3788 4281 
L 1581 4281 
L 1581 331 
z
" transform="scale(0.015625)"/>
       </defs>
       <use xlink:href="#DejaVuSerif-393"/>
      </g>
     </g>
    </g>
    <g id="xtick_2">
     <g id="line2d_5">
      <g>
       <use xlink:href="#m5e79f28f76" x="282.182636" y="403.791309" style="stroke: #000000; stroke-width: 0.8"/>
      </g>
     </g>
     <g id="line2d_6">
      <g>
       <use xlink:href="#md8dcb55231" x="282.182636" y="31.9875" style="stroke: #000000; stroke-width: 0.8"/>
      </g>
     </g>
     <g id="text_2">
      <!-- K -->
      <g transform="translate(276.953418 417.929121) scale(0.14 -0.14)">
       <defs>
        <path id="DejaVuSerif-4b" d="M 353 0 
L 353 331 
L 947 331 
L 947 4331 
L 353 4331 
L 353 4666 
L 2175 4666 
L 2175 4331 
L 1581 4331 
L 1581 2566 
L 3591 4331 
L 3084 4331 
L 3084 4666 
L 4634 4666 
L 4634 4331 
L 4109 4331 
L 2106 2572 
L 4347 331 
L 4878 331 
L 4878 0 
L 3794 0 
L 1581 2216 
L 1581 331 
L 2175 331 
L 2175 0 
L 353 0 
z
" transform="scale(0.015625)"/>
       </defs>
       <use xlink:href="#DejaVuSerif-4b"/>
      </g>
     </g>
    </g>
    <g id="xtick_3">
     <g id="line2d_7">
      <g>
       <use xlink:href="#m5e79f28f76" x="462.420201" y="403.791309" style="stroke: #000000; stroke-width: 0.8"/>
      </g>
     </g>
     <g id="line2d_8">
      <g>
       <use xlink:href="#md8dcb55231" x="462.420201" y="31.9875" style="stroke: #000000; stroke-width: 0.8"/>
      </g>
     </g>
     <g id="text_3">
      <!-- M -->
      <g transform="translate(455.252857 417.929121) scale(0.14 -0.14)">
       <defs>
        <path id="DejaVuSerif-4d" d="M 353 0 
L 353 331 
L 947 331 
L 947 4331 
L 319 4331 
L 319 4666 
L 1678 4666 
L 3316 1344 
L 4953 4666 
L 6228 4666 
L 6228 4331 
L 5606 4331 
L 5606 331 
L 6203 331 
L 6203 0 
L 4378 0 
L 4378 331 
L 4972 331 
L 4972 3938 
L 3372 684 
L 2931 684 
L 1331 3938 
L 1331 331 
L 1925 331 
L 1925 0 
L 353 0 
z
" transform="scale(0.015625)"/>
       </defs>
       <use xlink:href="#DejaVuSerif-4d"/>
      </g>
     </g>
    </g>
    <g id="xtick_4">
     <g id="line2d_9">
      <g>
       <use xlink:href="#m5e79f28f76" x="704.330859" y="403.791309" style="stroke: #000000; stroke-width: 0.8"/>
      </g>
     </g>
     <g id="line2d_10">
      <g>
       <use xlink:href="#md8dcb55231" x="704.330859" y="31.9875" style="stroke: #000000; stroke-width: 0.8"/>
      </g>
     </g>
     <g id="text_4">
      <!-- Γ -->
      <g transform="translate(699.473516 417.929121) scale(0.14 -0.14)">
       <use xlink:href="#DejaVuSerif-393"/>
      </g>
     </g>
    </g>
   </g>
   <g id="matplotlib.axis_2">
    <g id="ytick_1">
     <g id="line2d_11">
      <defs>
       <path id="m2e2d3e036b" d="M 0 0 
L 3.5 0 
" style="stroke: #000000; stroke-width: 0.8"/>
      </defs>
      <g>
       <use xlink:href="#m2e2d3e036b" x="54.335156" y="403.791309" style="stroke: #000000; stroke-width: 0.8"/>
      </g>
     </g>
     <g id="line2d_12">
      <defs>
       <path id="mbdeee9e36e" d="M 0 0 
L -3.5 0 
" style="stroke: #000000; stroke-width: 0.8"/>
      </defs>
      <g>
       <use xlink:href="#mbdeee9e36e" x="704.330859" y="403.791309" style="stroke: #000000; stroke-width: 0.8"/>
      </g>
     </g>
     <g id="text_5">
      <!-- −6 -->
      <g transform="translate(30.196094 409.110215) scale(0.14 -0.14)">
       <defs>
        <path id="DejaVuSerif-2212" d="M 678 2259 
L 4684 2259 
L 4684 1753 
L 678 1753 
L 678 2259 
z
" transform="scale(0.015625)"/>
        <path id="DejaVuSerif-36" d="M 2094 219 
Q 2534 219 2771 542 
Q 3009 866 3009 1472 
Q 3009 2078 2771 2401 
Q 2534 2725 2094 2725 
Q 1647 2725 1412 2412 
Q 1178 2100 1178 1509 
Q 1178 888 1415 553 
Q 1653 219 2094 219 
z
M 1075 2569 
Q 1288 2803 1556 2918 
Q 1825 3034 2163 3034 
Q 2859 3034 3264 2615 
Q 3669 2197 3669 1472 
Q 3669 763 3233 336 
Q 2797 -91 2069 -91 
Q 1278 -91 853 498 
Q 428 1088 428 2181 
Q 428 3406 931 4078 
Q 1434 4750 2350 4750 
Q 2597 4750 2869 4703 
Q 3141 4656 3425 4563 
L 3425 3794 
L 3072 3794 
Q 3034 4109 2831 4275 
Q 2628 4441 2284 4441 
Q 1678 4441 1381 3981 
Q 1084 3522 1075 2569 
z
" transform="scale(0.015625)"/>
       </defs>
       <use xlink:href="#DejaVuSerif-2212"/>
       <use xlink:href="#DejaVuSerif-36" transform="translate(83.789062 0)"/>
      </g>
     </g>
    </g>
    <g id="ytick_2">
     <g id="line2d_13">
      <g>
       <use xlink:href="#m2e2d3e036b" x="54.335156" y="341.824007" style="stroke: #000000; stroke-width: 0.8"/>
      </g>
     </g>
     <g id="line2d_14">
      <g>
       <use xlink:href="#mbdeee9e36e" x="704.330859" y="341.824007" style="stroke: #000000; stroke-width: 0.8"/>
      </g>
     </g>
     <g id="text_6">
      <!-- −4 -->
      <g transform="translate(30.196094 347.142913) scale(0.14 -0.14)">
       <defs>
        <path id="DejaVuSerif-34" d="M 2234 1581 
L 2234 4063 
L 641 1581 
L 2234 1581 
z
M 3609 0 
L 1484 0 
L 1484 331 
L 2234 331 
L 2234 1247 
L 197 1247 
L 197 1588 
L 2241 4750 
L 2859 4750 
L 2859 1581 
L 3750 1581 
L 3750 1247 
L 2859 1247 
L 2859 331 
L 3609 331 
L 3609 0 
z
" transform="scale(0.015625)"/>
       </defs>
       <use xlink:href="#DejaVuSerif-2212"/>
       <use xlink:href="#DejaVuSerif-34" transform="translate(83.789062 0)"/>
      </g>
     </g>
    </g>
    <g id="ytick_3">
     <g id="line2d_15">
      <g>
       <use xlink:href="#m2e2d3e036b" x="54.335156" y="279.856706" style="stroke: #000000; stroke-width: 0.8"/>
      </g>
     </g>
     <g id="line2d_16">
      <g>
       <use xlink:href="#mbdeee9e36e" x="704.330859" y="279.856706" style="stroke: #000000; stroke-width: 0.8"/>
      </g>
     </g>
     <g id="text_7">
      <!-- −2 -->
      <g transform="translate(30.196094 285.175612) scale(0.14 -0.14)">
       <defs>
        <path id="DejaVuSerif-32" d="M 819 3553 
L 469 3553 
L 469 4384 
Q 803 4563 1142 4656 
Q 1481 4750 1806 4750 
Q 2534 4750 2956 4397 
Q 3378 4044 3378 3438 
Q 3378 2753 2422 1800 
Q 2347 1728 2309 1691 
L 1131 513 
L 3078 513 
L 3078 1088 
L 3444 1088 
L 3444 0 
L 434 0 
L 434 341 
L 1850 1753 
Q 2319 2222 2519 2614 
Q 2719 3006 2719 3438 
Q 2719 3909 2473 4175 
Q 2228 4441 1797 4441 
Q 1350 4441 1106 4219 
Q 863 3997 819 3553 
z
" transform="scale(0.015625)"/>
       </defs>
       <use xlink:href="#DejaVuSerif-2212"/>
       <use xlink:href="#DejaVuSerif-32" transform="translate(83.789062 0)"/>
      </g>
     </g>
    </g>
    <g id="ytick_4">
     <g id="line2d_17">
      <g>
       <use xlink:href="#m2e2d3e036b" x="54.335156" y="217.889404" style="stroke: #000000; stroke-width: 0.8"/>
      </g>
     </g>
     <g id="line2d_18">
      <g>
       <use xlink:href="#mbdeee9e36e" x="704.330859" y="217.889404" style="stroke: #000000; stroke-width: 0.8"/>
      </g>
     </g>
     <g id="text_8">
      <!-- 0 -->
      <g transform="translate(41.927656 223.208311) scale(0.14 -0.14)">
       <defs>
        <path id="DejaVuSerif-30" d="M 2034 219 
Q 2513 219 2750 744 
Q 2988 1269 2988 2328 
Q 2988 3391 2750 3916 
Q 2513 4441 2034 4441 
Q 1556 4441 1318 3916 
Q 1081 3391 1081 2328 
Q 1081 1269 1318 744 
Q 1556 219 2034 219 
z
M 2034 -91 
Q 1275 -91 848 546 
Q 422 1184 422 2328 
Q 422 3475 848 4112 
Q 1275 4750 2034 4750 
Q 2797 4750 3222 4112 
Q 3647 3475 3647 2328 
Q 3647 1184 3222 546 
Q 2797 -91 2034 -91 
z
" transform="scale(0.015625)"/>
       </defs>
       <use xlink:href="#DejaVuSerif-30"/>
      </g>
     </g>
    </g>
    <g id="ytick_5">
     <g id="line2d_19">
      <g>
       <use xlink:href="#m2e2d3e036b" x="54.335156" y="155.922103" style="stroke: #000000; stroke-width: 0.8"/>
      </g>
     </g>
     <g id="line2d_20">
      <g>
       <use xlink:href="#mbdeee9e36e" x="704.330859" y="155.922103" style="stroke: #000000; stroke-width: 0.8"/>
      </g>
     </g>
     <g id="text_9">
      <!-- 2 -->
      <g transform="translate(41.927656 161.241009) scale(0.14 -0.14)">
       <use xlink:href="#DejaVuSerif-32"/>
      </g>
     </g>
    </g>
    <g id="ytick_6">
     <g id="line2d_21">
      <g>
       <use xlink:href="#m2e2d3e036b" x="54.335156" y="93.954801" style="stroke: #000000; stroke-width: 0.8"/>
      </g>
     </g>
     <g id="line2d_22">
      <g>
       <use xlink:href="#mbdeee9e36e" x="704.330859" y="93.954801" style="stroke: #000000; stroke-width: 0.8"/>
      </g>
     </g>
     <g id="text_10">
      <!-- 4 -->
      <g transform="translate(41.927656 99.273708) scale(0.14 -0.14)">
       <use xlink:href="#DejaVuSerif-34"/>
      </g>
     </g>
    </g>
    <g id="ytick_7">
     <g id="line2d_23">
      <g>
       <use xlink:href="#m2e2d3e036b" x="54.335156" y="31.9875" style="stroke: #000000; stroke-width: 0.8"/>
      </g>
     </g>
     <g id="line2d_24">
      <g>
       <use xlink:href="#mbdeee9e36e" x="704.330859" y="31.9875" style="stroke: #000000; stroke-width: 0.8"/>
      </g>
     </g>
     <g id="text_11">
      <!-- 6 -->
      <g transform="translate(41.927656 37.306406) scale(0.14 -0.14)">
       <use xlink:href="#DejaVuSerif-36"/>
      </g>
     </g>
    </g>
    <g id="text_12">
     <!-- Energy (eV) -->
     <g transform="translate(22.641094 266.379404) rotate(-90) scale(0.16 -0.16)">
      <defs>
       <path id="DejaVuSerif-45" d="M 353 0 
L 353 331 
L 947 331 
L 947 4331 
L 353 4331 
L 353 4666 
L 4109 4666 
L 4109 3628 
L 3725 3628 
L 3725 4281 
L 1581 4281 
L 1581 2719 
L 3109 2719 
L 3109 3303 
L 3494 3303 
L 3494 1753 
L 3109 1753 
L 3109 2338 
L 1581 2338 
L 1581 384 
L 3775 384 
L 3775 1038 
L 4159 1038 
L 4159 0 
L 353 0 
z
" transform="scale(0.015625)"/>
       <path id="DejaVuSerif-6e" d="M 263 0 
L 263 331 
L 781 331 
L 781 2988 
L 231 2988 
L 231 3322 
L 1356 3322 
L 1356 2731 
Q 1516 3069 1770 3241 
Q 2025 3413 2363 3413 
Q 2913 3413 3172 3097 
Q 3431 2781 3431 2113 
L 3431 331 
L 3944 331 
L 3944 0 
L 2356 0 
L 2356 331 
L 2853 331 
L 2853 1931 
Q 2853 2541 2703 2767 
Q 2553 2994 2175 2994 
Q 1775 2994 1565 2701 
Q 1356 2409 1356 1850 
L 1356 331 
L 1856 331 
L 1856 0 
L 263 0 
z
" transform="scale(0.015625)"/>
       <path id="DejaVuSerif-65" d="M 3469 1600 
L 991 1600 
L 991 1575 
Q 991 903 1244 561 
Q 1497 219 1991 219 
Q 2369 219 2611 417 
Q 2853 616 2950 1006 
L 3413 1006 
Q 3275 459 2904 184 
Q 2534 -91 1931 -91 
Q 1203 -91 761 389 
Q 319 869 319 1663 
Q 319 2450 753 2931 
Q 1188 3413 1894 3413 
Q 2647 3413 3050 2948 
Q 3453 2484 3469 1600 
z
M 2791 1931 
Q 2772 2513 2545 2808 
Q 2319 3103 1894 3103 
Q 1497 3103 1269 2806 
Q 1041 2509 991 1931 
L 2791 1931 
z
" transform="scale(0.015625)"/>
       <path id="DejaVuSerif-72" d="M 3059 3328 
L 3059 2497 
L 2728 2497 
Q 2713 2744 2591 2866 
Q 2469 2988 2234 2988 
Q 1809 2988 1582 2694 
Q 1356 2400 1356 1850 
L 1356 331 
L 2022 331 
L 2022 0 
L 263 0 
L 263 331 
L 781 331 
L 781 2994 
L 231 2994 
L 231 3322 
L 1356 3322 
L 1356 2731 
Q 1525 3078 1790 3245 
Q 2056 3413 2438 3413 
Q 2578 3413 2733 3391 
Q 2888 3369 3059 3328 
z
" transform="scale(0.015625)"/>
       <path id="DejaVuSerif-67" d="M 3359 2988 
L 3359 72 
Q 3359 -644 2965 -1033 
Q 2572 -1422 1844 -1422 
Q 1516 -1422 1216 -1362 
Q 916 -1303 641 -1184 
L 641 -488 
L 941 -488 
Q 997 -813 1206 -963 
Q 1416 -1113 1806 -1113 
Q 2313 -1113 2548 -827 
Q 2784 -541 2784 72 
L 2784 519 
Q 2616 206 2355 57 
Q 2094 -91 1709 -91 
Q 1097 -91 708 395 
Q 319 881 319 1663 
Q 319 2444 706 2928 
Q 1094 3413 1709 3413 
Q 2094 3413 2355 3264 
Q 2616 3116 2784 2803 
L 2784 3322 
L 3909 3322 
L 3909 2988 
L 3359 2988 
z
M 2784 1825 
Q 2784 2422 2554 2737 
Q 2325 3053 1888 3053 
Q 1444 3053 1217 2703 
Q 991 2353 991 1663 
Q 991 975 1217 622 
Q 1444 269 1888 269 
Q 2325 269 2554 583 
Q 2784 897 2784 1497 
L 2784 1825 
z
" transform="scale(0.015625)"/>
       <path id="DejaVuSerif-79" d="M 1381 -609 
L 1600 -56 
L 359 2988 
L -19 2988 
L -19 3322 
L 1509 3322 
L 1509 2988 
L 978 2988 
L 1913 703 
L 2847 2988 
L 2350 2988 
L 2350 3322 
L 3597 3322 
L 3597 2988 
L 3225 2988 
L 1703 -750 
Q 1547 -1138 1356 -1280 
Q 1166 -1422 819 -1422 
Q 672 -1422 517 -1397 
Q 363 -1372 206 -1325 
L 206 -691 
L 500 -691 
Q 519 -903 608 -995 
Q 697 -1088 884 -1088 
Q 1056 -1088 1161 -992 
Q 1266 -897 1381 -609 
z
" transform="scale(0.015625)"/>
       <path id="DejaVuSerif-20" transform="scale(0.015625)"/>
       <path id="DejaVuSerif-28" d="M 2041 -997 
Q 1281 -656 893 83 
Q 506 822 506 1931 
Q 506 3044 893 3783 
Q 1281 4522 2041 4863 
L 2041 4556 
Q 1559 4225 1350 3623 
Q 1141 3022 1141 1931 
Q 1141 844 1350 242 
Q 1559 -359 2041 -691 
L 2041 -997 
z
" transform="scale(0.015625)"/>
       <path id="DejaVuSerif-56" d="M 1119 4331 
L 2497 750 
L 3872 4331 
L 3347 4331 
L 3347 4666 
L 4716 4666 
L 4716 4331 
L 4263 4331 
L 2597 0 
L 2059 0 
L 403 4331 
L -63 4331 
L -63 4666 
L 1638 4666 
L 1638 4331 
L 1119 4331 
z
" transform="scale(0.015625)"/>
       <path id="DejaVuSerif-29" d="M 453 -997 
L 453 -691 
Q 934 -359 1145 242 
Q 1356 844 1356 1931 
Q 1356 3022 1145 3623 
Q 934 4225 453 4556 
L 453 4863 
Q 1216 4522 1603 3783 
Q 1991 3044 1991 1931 
Q 1991 822 1603 83 
Q 1216 -656 453 -997 
z
" transform="scale(0.015625)"/>
      </defs>
      <use xlink:href="#DejaVuSerif-45"/>
      <use xlink:href="#DejaVuSerif-6e" transform="translate(72.998047 0)"/>
      <use xlink:href="#DejaVuSerif-65" transform="translate(137.402344 0)"/>
      <use xlink:href="#DejaVuSerif-72" transform="translate(196.582031 0)"/>
      <use xlink:href="#DejaVuSerif-67" transform="translate(244.384766 0)"/>
      <use xlink:href="#DejaVuSerif-79" transform="translate(308.398438 0)"/>
      <use xlink:href="#DejaVuSerif-20" transform="translate(364.892578 0)"/>
      <use xlink:href="#DejaVuSerif-28" transform="translate(396.679688 0)"/>
      <use xlink:href="#DejaVuSerif-65" transform="translate(435.693359 0)"/>
      <use xlink:href="#DejaVuSerif-56" transform="translate(494.873047 0)"/>
      <use xlink:href="#DejaVuSerif-29" transform="translate(567.089844 0)"/>
     </g>
    </g>
   </g>
   <g id="line2d_25">
    <path d="M 54.335156 217.889404 
L 704.330859 217.889404 
" clip-path="url(#p252b21bb4e)" style="fill: none; stroke-dasharray: 5.55,2.4; stroke-dashoffset: 0; stroke: #643cc3; stroke-width: 1.5"/>
   </g>
   <g id="patch_3">
    <path d="M 54.335156 403.791309 
L 54.335156 31.9875 
" style="fill: none; stroke: #000000; stroke-width: 0.8; stroke-linejoin: miter; stroke-linecap: square"/>
   </g>
   <g id="patch_4">
    <path d="M 704.330859 403.791309 
L 704.330859 31.9875 
" style="fill: none; stroke: #000000; stroke-width: 0.8; stroke-linejoin: miter; stroke-linecap: square"/>
   </g>
   <g id="patch_5">
    <path d="M 54.335156 403.791309 
L 704.330859 403.791309 
" style="fill: none; stroke: #000000; stroke-width: 0.8; stroke-linejoin: miter; stroke-linecap: square"/>
   </g>
   <g id="patch_6">
    <path d="M 54.335156 31.9875 
L 704.330859 31.9875 
" style="fill: none; stroke: #000000; stroke-width: 0.8; stroke-linejoin: miter; stroke-linecap: square"/>
   </g>
   <g id="text_13">
    <!-- Bandstructure for Graphene-B₄C₃ by HSE06 -->
    <g transform="translate(154.94082 25.9875) scale(0.2 -0.2)">
     <defs>
      <path id="DejaVuSerif-42" d="M 1581 331 
L 2516 331 
Q 3078 331 3337 575 
Q 3597 819 3597 1350 
Q 3597 1878 3339 2120 
Q 3081 2363 2516 2363 
L 1581 2363 
L 1581 331 
z
M 1581 2694 
L 2375 2694 
Q 2888 2694 3123 2891 
Q 3359 3088 3359 3513 
Q 3359 3941 3123 4136 
Q 2888 4331 2375 4331 
L 1581 4331 
L 1581 2694 
z
M 353 0 
L 353 331 
L 947 331 
L 947 4331 
L 353 4331 
L 353 4666 
L 2656 4666 
Q 3363 4666 3720 4377 
Q 4078 4088 4078 3513 
Q 4078 3097 3829 2850 
Q 3581 2603 3103 2547 
Q 3697 2472 4005 2167 
Q 4313 1863 4313 1350 
Q 4313 656 3875 328 
Q 3438 0 2509 0 
L 353 0 
z
" transform="scale(0.015625)"/>
      <path id="DejaVuSerif-61" d="M 2547 1044 
L 2547 1747 
L 1806 1747 
Q 1378 1747 1168 1562 
Q 959 1378 959 997 
Q 959 650 1171 447 
Q 1384 244 1747 244 
Q 2106 244 2326 466 
Q 2547 688 2547 1044 
z
M 3122 2075 
L 3122 331 
L 3634 331 
L 3634 0 
L 2547 0 
L 2547 359 
Q 2356 128 2106 18 
Q 1856 -91 1522 -91 
Q 969 -91 644 203 
Q 319 497 319 997 
Q 319 1513 691 1797 
Q 1063 2081 1741 2081 
L 2547 2081 
L 2547 2309 
Q 2547 2688 2317 2895 
Q 2088 3103 1672 3103 
Q 1328 3103 1125 2947 
Q 922 2791 872 2484 
L 575 2484 
L 575 3156 
Q 875 3284 1158 3348 
Q 1441 3413 1709 3413 
Q 2400 3413 2761 3070 
Q 3122 2728 3122 2075 
z
" transform="scale(0.015625)"/>
      <path id="DejaVuSerif-64" d="M 3359 331 
L 3909 331 
L 3909 0 
L 2784 0 
L 2784 519 
Q 2616 206 2355 57 
Q 2094 -91 1709 -91 
Q 1097 -91 708 395 
Q 319 881 319 1663 
Q 319 2444 706 2928 
Q 1094 3413 1709 3413 
Q 2094 3413 2355 3264 
Q 2616 3116 2784 2803 
L 2784 4531 
L 2241 4531 
L 2241 4863 
L 3359 4863 
L 3359 331 
z
M 2784 1497 
L 2784 1825 
Q 2784 2422 2554 2737 
Q 2325 3053 1888 3053 
Q 1444 3053 1217 2703 
Q 991 2353 991 1663 
Q 991 975 1217 622 
Q 1444 269 1888 269 
Q 2325 269 2554 583 
Q 2784 897 2784 1497 
z
" transform="scale(0.015625)"/>
      <path id="DejaVuSerif-73" d="M 359 184 
L 359 959 
L 691 959 
Q 703 588 923 403 
Q 1144 219 1575 219 
Q 1963 219 2166 364 
Q 2369 509 2369 788 
Q 2369 1006 2220 1140 
Q 2072 1275 1594 1428 
L 1178 1569 
Q 750 1706 558 1912 
Q 366 2119 366 2438 
Q 366 2894 700 3153 
Q 1034 3413 1625 3413 
Q 1888 3413 2178 3344 
Q 2469 3275 2778 3144 
L 2778 2419 
L 2447 2419 
Q 2434 2741 2221 2922 
Q 2009 3103 1644 3103 
Q 1281 3103 1095 2975 
Q 909 2847 909 2591 
Q 909 2381 1050 2254 
Q 1191 2128 1613 1997 
L 2069 1856 
Q 2541 1709 2748 1489 
Q 2956 1269 2956 922 
Q 2956 450 2595 179 
Q 2234 -91 1600 -91 
Q 1278 -91 972 -22 
Q 666 47 359 184 
z
" transform="scale(0.015625)"/>
      <path id="DejaVuSerif-74" d="M 691 2988 
L 184 2988 
L 184 3322 
L 691 3322 
L 691 4353 
L 1269 4353 
L 1269 3322 
L 2350 3322 
L 2350 2988 
L 1269 2988 
L 1269 878 
Q 1269 456 1350 337 
Q 1431 219 1650 219 
Q 1875 219 1978 351 
Q 2081 484 2088 781 
L 2522 781 
Q 2497 328 2275 118 
Q 2053 -91 1600 -91 
Q 1103 -91 897 129 
Q 691 350 691 878 
L 691 2988 
z
" transform="scale(0.015625)"/>
      <path id="DejaVuSerif-75" d="M 2266 3322 
L 3341 3322 
L 3341 331 
L 3884 331 
L 3884 0 
L 2766 0 
L 2766 588 
Q 2606 256 2353 82 
Q 2100 -91 1766 -91 
Q 1213 -91 952 223 
Q 691 538 691 1209 
L 691 2988 
L 172 2988 
L 172 3322 
L 1269 3322 
L 1269 1388 
Q 1269 781 1417 556 
Q 1566 331 1947 331 
Q 2347 331 2556 625 
Q 2766 919 2766 1478 
L 2766 2988 
L 2266 2988 
L 2266 3322 
z
" transform="scale(0.015625)"/>
      <path id="DejaVuSerif-63" d="M 3291 997 
Q 3169 466 2822 187 
Q 2475 -91 1925 -91 
Q 1200 -91 759 389 
Q 319 869 319 1663 
Q 319 2459 759 2936 
Q 1200 3413 1925 3413 
Q 2241 3413 2553 3339 
Q 2866 3266 3181 3116 
L 3181 2266 
L 2847 2266 
Q 2781 2703 2561 2903 
Q 2341 3103 1931 3103 
Q 1466 3103 1228 2742 
Q 991 2381 991 1663 
Q 991 944 1227 581 
Q 1463 219 1931 219 
Q 2303 219 2525 412 
Q 2747 606 2828 997 
L 3291 997 
z
" transform="scale(0.015625)"/>
      <path id="DejaVuSerif-66" d="M 2753 4078 
L 2450 4078 
Q 2447 4313 2317 4434 
Q 2188 4556 1941 4556 
Q 1619 4556 1487 4379 
Q 1356 4203 1356 3750 
L 1356 3322 
L 2284 3322 
L 2284 2988 
L 1356 2988 
L 1356 331 
L 2094 331 
L 2094 0 
L 231 0 
L 231 331 
L 781 331 
L 781 2988 
L 231 2988 
L 231 3322 
L 781 3322 
L 781 3738 
Q 781 4294 1070 4578 
Q 1359 4863 1919 4863 
Q 2128 4863 2337 4825 
Q 2547 4788 2753 4709 
L 2753 4078 
z
" transform="scale(0.015625)"/>
      <path id="DejaVuSerif-6f" d="M 1925 219 
Q 2388 219 2623 584 
Q 2859 950 2859 1663 
Q 2859 2375 2623 2739 
Q 2388 3103 1925 3103 
Q 1463 3103 1227 2739 
Q 991 2375 991 1663 
Q 991 950 1228 584 
Q 1466 219 1925 219 
z
M 1925 -91 
Q 1200 -91 759 389 
Q 319 869 319 1663 
Q 319 2456 758 2934 
Q 1197 3413 1925 3413 
Q 2653 3413 3092 2934 
Q 3531 2456 3531 1663 
Q 3531 869 3092 389 
Q 2653 -91 1925 -91 
z
" transform="scale(0.015625)"/>
      <path id="DejaVuSerif-47" d="M 4097 3272 
Q 3988 3856 3641 4136 
Q 3294 4416 2675 4416 
Q 1869 4416 1472 3897 
Q 1075 3378 1075 2328 
Q 1075 1300 1484 772 
Q 1894 244 2688 244 
Q 3041 244 3362 331 
Q 3684 419 3975 594 
L 3975 1797 
L 3097 1797 
L 3097 2131 
L 4609 2131 
L 4609 391 
Q 4194 150 3714 29 
Q 3234 -91 2688 -91 
Q 1631 -91 995 570 
Q 359 1231 359 2328 
Q 359 3434 996 4092 
Q 1634 4750 2713 4750 
Q 3113 4750 3539 4658 
Q 3966 4566 4447 4378 
L 4447 3272 
L 4097 3272 
z
" transform="scale(0.015625)"/>
      <path id="DejaVuSerif-70" d="M 1313 1825 
L 1313 1497 
Q 1313 897 1542 583 
Q 1772 269 2209 269 
Q 2650 269 2876 622 
Q 3103 975 3103 1663 
Q 3103 2353 2876 2703 
Q 2650 3053 2209 3053 
Q 1772 3053 1542 2737 
Q 1313 2422 1313 1825 
z
M 738 2988 
L 184 2988 
L 184 3322 
L 1313 3322 
L 1313 2803 
Q 1481 3116 1742 3264 
Q 2003 3413 2388 3413 
Q 3000 3413 3387 2928 
Q 3775 2444 3775 1663 
Q 3775 881 3387 395 
Q 3000 -91 2388 -91 
Q 2003 -91 1742 57 
Q 1481 206 1313 519 
L 1313 -997 
L 1856 -997 
L 1856 -1331 
L 184 -1331 
L 184 -997 
L 738 -997 
L 738 2988 
z
" transform="scale(0.015625)"/>
      <path id="DejaVuSerif-68" d="M 263 0 
L 263 331 
L 781 331 
L 781 4531 
L 231 4531 
L 231 4863 
L 1356 4863 
L 1356 2731 
Q 1516 3069 1770 3241 
Q 2025 3413 2363 3413 
Q 2913 3413 3172 3097 
Q 3431 2781 3431 2113 
L 3431 331 
L 3944 331 
L 3944 0 
L 2356 0 
L 2356 331 
L 2853 331 
L 2853 1931 
Q 2853 2541 2704 2764 
Q 2556 2988 2175 2988 
Q 1775 2988 1565 2697 
Q 1356 2406 1356 1850 
L 1356 331 
L 1856 331 
L 1856 0 
L 263 0 
z
" transform="scale(0.015625)"/>
      <path id="DejaVuSerif-2d" d="M 281 1959 
L 1881 1959 
L 1881 1472 
L 281 1472 
L 281 1959 
z
" transform="scale(0.015625)"/>
      <path id="DejaVuSerif-2084" d="M 1409 946 
L 1409 2218 
L 447 946 
L 1409 946 
z
M 2309 0 
L 953 0 
L 953 262 
L 1409 262 
L 1409 690 
L 166 690 
L 166 953 
L 1416 2609 
L 1856 2609 
L 1856 946 
L 2369 946 
L 2369 690 
L 1856 690 
L 1856 262 
L 2309 262 
L 2309 0 
z
" transform="scale(0.015625)"/>
      <path id="DejaVuSerif-43" d="M 4513 1234 
Q 4306 581 3820 245 
Q 3334 -91 2591 -91 
Q 2134 -91 1743 65 
Q 1353 222 1050 525 
Q 700 875 529 1320 
Q 359 1766 359 2328 
Q 359 3416 987 4083 
Q 1616 4750 2644 4750 
Q 3025 4750 3456 4650 
Q 3888 4550 4384 4347 
L 4384 3272 
L 4031 3272 
Q 3916 3859 3567 4137 
Q 3219 4416 2591 4416 
Q 1844 4416 1459 3886 
Q 1075 3356 1075 2328 
Q 1075 1303 1459 773 
Q 1844 244 2591 244 
Q 3113 244 3450 492 
Q 3788 741 3938 1234 
L 4513 1234 
z
" transform="scale(0.015625)"/>
      <path id="DejaVuSerif-2083" d="M 391 2500 
Q 619 2581 828 2621 
Q 1038 2662 1222 2662 
Q 1653 2662 1886 2493 
Q 2119 2325 2119 2015 
Q 2119 1790 1953 1634 
Q 1788 1478 1491 1425 
Q 1863 1375 2052 1189 
Q 2241 1003 2241 690 
Q 2241 334 1967 143 
Q 1694 -47 1184 -47 
Q 959 -47 742 -3 
Q 525 40 313 128 
L 313 659 
L 531 656 
Q 547 425 700 304 
Q 853 184 1141 184 
Q 1434 184 1593 321 
Q 1753 459 1753 715 
Q 1753 1006 1593 1154 
Q 1434 1303 1119 1303 
L 953 1303 
L 953 1534 
L 1038 1534 
Q 1341 1534 1495 1649 
Q 1650 1765 1650 1996 
Q 1650 2206 1523 2318 
Q 1397 2431 1159 2431 
Q 903 2431 767 2331 
Q 631 2231 609 2028 
L 391 2028 
L 391 2500 
z
" transform="scale(0.015625)"/>
      <path id="DejaVuSerif-62" d="M 738 331 
L 738 4531 
L 184 4531 
L 184 4863 
L 1313 4863 
L 1313 2803 
Q 1481 3116 1742 3264 
Q 2003 3413 2388 3413 
Q 3000 3413 3387 2928 
Q 3775 2444 3775 1663 
Q 3775 881 3387 395 
Q 3000 -91 2388 -91 
Q 2003 -91 1742 57 
Q 1481 206 1313 519 
L 1313 0 
L 184 0 
L 184 331 
L 738 331 
z
M 1313 1497 
Q 1313 897 1542 583 
Q 1772 269 2209 269 
Q 2650 269 2876 622 
Q 3103 975 3103 1663 
Q 3103 2353 2876 2703 
Q 2650 3053 2209 3053 
Q 1772 3053 1542 2737 
Q 1313 2422 1313 1825 
L 1313 1497 
z
" transform="scale(0.015625)"/>
      <path id="DejaVuSerif-48" d="M 353 0 
L 353 331 
L 947 331 
L 947 4331 
L 353 4331 
L 353 4666 
L 2175 4666 
L 2175 4331 
L 1581 4331 
L 1581 2719 
L 4000 2719 
L 4000 4331 
L 3406 4331 
L 3406 4666 
L 5228 4666 
L 5228 4331 
L 4634 4331 
L 4634 331 
L 5228 331 
L 5228 0 
L 3406 0 
L 3406 331 
L 4000 331 
L 4000 2338 
L 1581 2338 
L 1581 331 
L 2175 331 
L 2175 0 
L 353 0 
z
" transform="scale(0.015625)"/>
      <path id="DejaVuSerif-53" d="M 594 225 
L 594 1288 
L 953 1284 
Q 969 753 1261 498 
Q 1553 244 2150 244 
Q 2706 244 2998 464 
Q 3291 684 3291 1106 
Q 3291 1444 3114 1625 
Q 2938 1806 2369 1978 
L 1753 2163 
Q 1084 2366 811 2669 
Q 538 2972 538 3500 
Q 538 4094 959 4422 
Q 1381 4750 2144 4750 
Q 2469 4750 2856 4679 
Q 3244 4609 3681 4475 
L 3681 3481 
L 3328 3481 
Q 3275 3975 2998 4195 
Q 2722 4416 2156 4416 
Q 1663 4416 1405 4214 
Q 1147 4013 1147 3628 
Q 1147 3294 1340 3103 
Q 1534 2913 2163 2725 
L 2741 2553 
Q 3375 2363 3645 2067 
Q 3916 1772 3916 1275 
Q 3916 597 3481 253 
Q 3047 -91 2188 -91 
Q 1803 -91 1404 -12 
Q 1006 66 594 225 
z
" transform="scale(0.015625)"/>
     </defs>
     <use xlink:href="#DejaVuSerif-42"/>
     <use xlink:href="#DejaVuSerif-61" transform="translate(73.486328 0)"/>
     <use xlink:href="#DejaVuSerif-6e" transform="translate(133.105469 0)"/>
     <use xlink:href="#DejaVuSerif-64" transform="translate(197.509766 0)"/>
     <use xlink:href="#DejaVuSerif-73" transform="translate(261.523438 0)"/>
     <use xlink:href="#DejaVuSerif-74" transform="translate(312.841797 0)"/>
     <use xlink:href="#DejaVuSerif-72" transform="translate(353.027344 0)"/>
     <use xlink:href="#DejaVuSerif-75" transform="translate(400.830078 0)"/>
     <use xlink:href="#DejaVuSerif-63" transform="translate(465.234375 0)"/>
     <use xlink:href="#DejaVuSerif-74" transform="translate(521.240234 0)"/>
     <use xlink:href="#DejaVuSerif-75" transform="translate(561.425781 0)"/>
     <use xlink:href="#DejaVuSerif-72" transform="translate(625.830078 0)"/>
     <use xlink:href="#DejaVuSerif-65" transform="translate(673.632812 0)"/>
     <use xlink:href="#DejaVuSerif-20" transform="translate(732.8125 0)"/>
     <use xlink:href="#DejaVuSerif-66" transform="translate(764.599609 0)"/>
     <use xlink:href="#DejaVuSerif-6f" transform="translate(801.611328 0)"/>
     <use xlink:href="#DejaVuSerif-72" transform="translate(861.816406 0)"/>
     <use xlink:href="#DejaVuSerif-20" transform="translate(909.619141 0)"/>
     <use xlink:href="#DejaVuSerif-47" transform="translate(941.40625 0)"/>
     <use xlink:href="#DejaVuSerif-72" transform="translate(1021.289062 0)"/>
     <use xlink:href="#DejaVuSerif-61" transform="translate(1069.091797 0)"/>
     <use xlink:href="#DejaVuSerif-70" transform="translate(1128.710938 0)"/>
     <use xlink:href="#DejaVuSerif-68" transform="translate(1192.724609 0)"/>
     <use xlink:href="#DejaVuSerif-65" transform="translate(1257.128906 0)"/>
     <use xlink:href="#DejaVuSerif-6e" transform="translate(1316.308594 0)"/>
     <use xlink:href="#DejaVuSerif-65" transform="translate(1380.712891 0)"/>
     <use xlink:href="#DejaVuSerif-2d" transform="translate(1439.892578 0)"/>
     <use xlink:href="#DejaVuSerif-42" transform="translate(1473.681641 0)"/>
     <use xlink:href="#DejaVuSerif-2084" transform="translate(1547.167969 0)"/>
     <use xlink:href="#DejaVuSerif-43" transform="translate(1587.255859 0)"/>
     <use xlink:href="#DejaVuSerif-2083" transform="translate(1663.769531 0)"/>
     <use xlink:href="#DejaVuSerif-20" transform="translate(1703.857422 0)"/>
     <use xlink:href="#DejaVuSerif-62" transform="translate(1735.644531 0)"/>
     <use xlink:href="#DejaVuSerif-79" transform="translate(1799.658203 0)"/>
     <use xlink:href="#DejaVuSerif-20" transform="translate(1856.152344 0)"/>
     <use xlink:href="#DejaVuSerif-48" transform="translate(1887.939453 0)"/>
     <use xlink:href="#DejaVuSerif-53" transform="translate(1975.146484 0)"/>
     <use xlink:href="#DejaVuSerif-45" transform="translate(2043.652344 0)"/>
     <use xlink:href="#DejaVuSerif-30" transform="translate(2116.650391 0)"/>
     <use xlink:href="#DejaVuSerif-36" transform="translate(2180.273438 0)"/>
    </g>
   </g>
   <g id="line2d_26">
    <path clip-path="url(#p252b21bb4e)" style="fill: none; stroke: #fa8c00; stroke-width: 1.5; stroke-linecap: square"/>
   </g>
   <g id="line2d_27">
    <path clip-path="url(#p252b21bb4e)" style="fill: none; stroke: #fa8c00; stroke-width: 1.5; stroke-linecap: square"/>
   </g>
   <g id="line2d_28">
    <path clip-path="url(#p252b21bb4e)" style="fill: none; stroke: #fa8c00; stroke-width: 1.5; stroke-linecap: square"/>
   </g>
   <g id="line2d_29">
    <path clip-path="url(#p252b21bb4e)" style="fill: none; stroke: #fa8c00; stroke-width: 1.5; stroke-linecap: square"/>
   </g>
   <g id="line2d_30">
    <path clip-path="url(#p252b21bb4e)" style="fill: none; stroke: #fa8c00; stroke-width: 1.5; stroke-linecap: square"/>
   </g>
   <g id="line2d_31">
    <path clip-path="url(#p252b21bb4e)" style="fill: none; stroke: #fa8c00; stroke-width: 1.5; stroke-linecap: square"/>
   </g>
   <g id="line2d_32">
    <path clip-path="url(#p252b21bb4e)" style="fill: none; stroke: #fa8c00; stroke-width: 1.5; stroke-linecap: square"/>
   </g>
   <g id="line2d_33">
    <path clip-path="url(#p252b21bb4e)" style="fill: none; stroke: #fa8c00; stroke-width: 1.5; stroke-linecap: square"/>
   </g>
   <g id="line2d_34">
    <path clip-path="url(#p252b21bb4e)" style="fill: none; stroke: #fa8c00; stroke-width: 1.5; stroke-linecap: square"/>
   </g>
   <g id="line2d_35">
    <path clip-path="url(#p252b21bb4e)" style="fill: none; stroke: #fa8c00; stroke-width: 1.5; stroke-linecap: square"/>
   </g>
   <g id="line2d_36">
    <path clip-path="url(#p252b21bb4e)" style="fill: none; stroke: #fa8c00; stroke-width: 1.5; stroke-linecap: square"/>
   </g>
   <g id="line2d_37">
    <path clip-path="url(#p252b21bb4e)" style="fill: none; stroke: #fa8c00; stroke-width: 1.5; stroke-linecap: square"/>
   </g>
   <g id="line2d_38">
    <path clip-path="url(#p252b21bb4e)" style="fill: none; stroke: #fa8c00; stroke-width: 1.5; stroke-linecap: square"/>
   </g>
   <g id="line2d_39">
    <path clip-path="url(#p252b21bb4e)" style="fill: none; stroke: #fa8c00; stroke-width: 1.5; stroke-linecap: square"/>
   </g>
   <g id="line2d_40">
    <path clip-path="url(#p252b21bb4e)" style="fill: none; stroke: #fa8c00; stroke-width: 1.5; stroke-linecap: square"/>
   </g>
   <g id="line2d_41">
    <path clip-path="url(#p252b21bb4e)" style="fill: none; stroke: #fa8c00; stroke-width: 1.5; stroke-linecap: square"/>
   </g>
   <g id="line2d_42">
    <path clip-path="url(#p252b21bb4e)" style="fill: none; stroke: #fa8c00; stroke-width: 1.5; stroke-linecap: square"/>
   </g>
   <g id="line2d_43">
    <path d="M 160.414182 433 
L 164.583935 431.769565 
L 171.933857 429.50466 
L 179.283772 427.156099 
L 186.633694 424.751768 
L 193.983609 422.331945 
L 201.333531 428.547265 
L 206.128242 433 
M 486.132897 433 
L 493.63448 429.238201 
L 501.438049 425.383835 
L 509.241617 427.871822 
L 517.045191 430.294743 
L 524.848759 432.637107 
L 532.652328 428.863299 
L 540.455896 424.646424 
L 548.259465 426.582902 
L 556.063038 428.550364 
L 563.866607 430.502334 
L 571.670175 432.407828 
L 574.181032 433 
" clip-path="url(#p252b21bb4e)" style="fill: none; stroke: #fa8c00; stroke-width: 1.5; stroke-linecap: square"/>
   </g>
   <g id="line2d_44">
    <path d="M 152.815129 433 
L 157.23402 430.053071 
L 164.583935 425.281589 
L 171.933857 420.726992 
L 179.283772 416.479133 
L 186.633694 415.122049 
L 193.983609 421.786633 
L 201.333531 419.93381 
L 208.683453 417.687496 
L 216.033368 419.06317 
L 223.383289 421.926059 
L 230.733204 423.797472 
L 238.083126 424.671211 
L 245.433041 430.090251 
L 249.166133 433 
M 270.991014 433 
L 274.832715 430.706826 
L 282.182636 428.336577 
L 282.182636 428.336577 
L 287.996754 428.761053 
L 293.810865 429.594513 
L 299.624983 430.564301 
L 305.439096 431.574368 
L 311.253212 432.587533 
L 313.64949 433 
M 358.455747 433 
L 363.580247 431.183974 
L 369.39436 429.293971 
L 375.208478 429.919841 
L 381.022591 430.533317 
L 386.836706 431.11581 
L 392.65082 431.661122 
L 398.464937 432.172352 
L 404.279053 432.646402 
L 408.984936 433 
M 476.609311 433 
L 478.027338 432.683583 
L 485.830912 429.991103 
L 493.63448 426.616984 
L 501.438049 425.368343 
L 509.241617 422.127453 
L 517.045191 420.74868 
L 524.848759 421.334271 
L 532.652328 422.818388 
L 540.455896 422.204912 
L 548.259465 415.874952 
L 556.063038 419.218088 
L 563.866607 422.917536 
L 571.670175 426.836968 
L 579.473744 430.914416 
L 583.35893 433 
" clip-path="url(#p252b21bb4e)" style="fill: none; stroke: #fa8c00; stroke-width: 1.5; stroke-linecap: square"/>
   </g>
   <g id="line2d_45">
    <path d="M 54.335156 341.102108 
L 61.685078 341.399551 
L 69.034993 342.263995 
L 76.384915 343.704735 
L 83.73483 345.700082 
L 91.084752 348.231446 
L 98.434667 351.264745 
L 105.784588 354.772095 
L 113.134503 358.719412 
L 120.484425 363.078811 
L 127.83434 367.810015 
L 135.184262 372.872743 
L 142.534184 378.245308 
L 149.884099 383.89053 
L 157.23402 389.771226 
L 164.583935 395.862612 
L 171.933857 402.133703 
L 179.283772 408.559712 
L 186.633694 412.652653 
L 193.983609 409.386976 
L 201.333531 410.586043 
L 208.683453 415.094164 
L 216.033368 415.431886 
L 223.383289 413.799048 
L 230.733204 418.861776 
L 238.083126 424.417145 
L 245.433041 424.599948 
L 252.782963 423.825357 
L 260.132878 422.582913 
L 267.4828 421.712272 
L 274.832715 422.991897 
L 282.182636 422.753323 
L 282.182636 422.753323 
L 287.996754 424.001964 
L 293.810865 425.250605 
L 299.624983 426.458967 
L 305.439096 427.630149 
L 311.253212 428.761053 
L 317.067325 429.851677 
L 322.881443 430.902023 
L 328.695554 431.908991 
L 334.509671 432.875681 
L 335.28989 433 
M 358.133359 433 
L 363.580247 431.075531 
L 369.39436 429.176233 
L 375.208478 427.258345 
L 381.022591 425.414818 
L 386.836706 423.664242 
L 392.65082 422.006617 
L 398.464937 420.457434 
L 404.279053 419.022891 
L 410.093166 417.702988 
L 415.907284 416.510117 
L 421.721395 415.444279 
L 427.535513 414.511672 
L 433.349626 413.715392 
L 439.163741 413.058538 
L 444.977855 412.547308 
L 450.791972 412.178603 
L 456.606084 411.95552 
L 462.420201 411.884258 
L 462.420201 411.884258 
L 470.22377 414.691377 
L 478.027338 417.458217 
L 485.830912 420.163089 
L 493.63448 422.802897 
L 501.438049 422.864864 
L 509.241617 418.923743 
L 517.045191 414.731655 
L 524.848759 410.694486 
L 532.652328 410.400141 
L 540.455896 412.782784 
L 548.259465 415.630181 
L 556.063038 409.346697 
L 563.866607 403.171655 
L 571.670175 397.185614 
L 579.473744 391.407163 
L 587.277317 385.851795 
L 595.080886 380.535 
L 602.884454 375.481567 
L 610.688023 370.706986 
L 618.491596 366.223652 
L 626.295164 362.059449 
L 634.098733 358.220575 
L 641.902301 354.734914 
L 649.70587 351.611762 
L 657.509443 348.872808 
L 665.313012 346.524247 
L 673.11658 344.58467 
L 680.920149 343.06957 
L 688.723722 341.982044 
L 696.527291 341.328289 
L 704.330859 341.102108 
" clip-path="url(#p252b21bb4e)" style="fill: none; stroke: #fa8c00; stroke-width: 1.5; stroke-linecap: square"/>
   </g>
   <g id="line2d_46">
    <path d="M 54.335156 341.09901 
L 61.685078 341.26942 
L 69.034993 341.740371 
L 76.384915 342.530454 
L 83.73483 343.627275 
L 91.084752 345.033933 
L 98.434667 346.741132 
L 105.784588 348.748873 
L 113.134503 351.044761 
L 120.484425 353.622601 
L 127.83434 356.476195 
L 135.184262 359.586954 
L 142.534184 363.054024 
L 149.884099 369.151607 
L 157.23402 375.354534 
L 164.583935 381.597739 
L 171.933857 387.81306 
L 179.283772 393.919937 
L 186.633694 399.828519 
L 193.983609 405.427265 
L 201.333531 406.812234 
L 208.683453 405.046166 
L 216.033368 408.008203 
L 223.383289 413.334293 
L 230.733204 412.745603 
L 238.083126 412.785882 
L 245.433041 413.944671 
L 252.782963 415.865657 
L 260.132878 418.065496 
L 267.4828 419.596089 
L 274.832715 419.918319 
L 282.182636 422.595306 
L 282.182636 422.595306 
L 287.996754 420.903599 
L 293.810865 418.846284 
L 299.624983 419.413285 
L 305.439096 420.355188 
L 311.253212 421.284698 
L 317.067325 422.192519 
L 322.881443 423.081749 
L 328.695554 423.946193 
L 334.509671 424.78585 
L 340.323785 425.603819 
L 346.1379 426.390803 
L 351.952018 427.156099 
L 357.766131 427.890412 
L 363.580247 428.596839 
L 369.39436 429.073987 
L 375.208478 427.165395 
L 381.022591 425.328064 
L 386.836706 423.580586 
L 392.65082 421.932256 
L 398.464937 420.38927 
L 404.279053 418.957825 
L 410.093166 417.647217 
L 415.907284 416.457445 
L 421.721395 415.397804 
L 427.535513 414.468294 
L 433.349626 413.678211 
L 439.163741 413.024456 
L 444.977855 412.516324 
L 450.791972 412.150717 
L 456.606084 411.930733 
L 462.420201 411.859471 
L 462.420201 411.859471 
L 470.22377 408.99968 
L 478.027338 407.837793 
L 485.830912 408.782795 
L 493.63448 409.913698 
L 501.438049 410.957847 
L 509.241617 411.289372 
L 517.045191 409.845534 
L 524.848759 407.255301 
L 532.652328 404.29946 
L 540.455896 399.509388 
L 548.259465 394.424971 
L 556.063038 389.241406 
L 563.866607 384.005169 
L 571.670175 378.750342 
L 579.473744 373.498613 
L 587.277317 368.277868 
L 595.080886 363.112893 
L 602.884454 359.15938 
L 610.688023 356.717868 
L 618.491596 354.409586 
L 626.295164 352.243829 
L 634.098733 350.242285 
L 641.902301 348.398758 
L 649.70587 346.741132 
L 657.509443 345.281802 
L 665.313012 344.026965 
L 673.11658 342.985914 
L 680.920149 342.167946 
L 688.723722 341.582355 
L 696.527291 341.226043 
L 704.330859 341.09901 
" clip-path="url(#p252b21bb4e)" style="fill: none; stroke: #fa8c00; stroke-width: 1.5; stroke-linecap: square"/>
   </g>
   <g id="line2d_47">
    <path d="M 54.335156 319.351585 
L 61.685078 319.717192 
L 69.034993 320.82021 
L 76.384915 322.629655 
L 83.73483 325.117643 
L 91.084752 328.243893 
L 98.434667 331.946439 
L 105.784588 336.172609 
L 113.134503 340.863534 
L 120.484425 345.957246 
L 127.83434 351.391778 
L 135.184262 357.108262 
L 142.534184 362.951778 
L 149.884099 366.570669 
L 157.23402 370.409543 
L 164.583935 374.4715 
L 171.933857 378.737948 
L 179.283772 383.202693 
L 186.633694 387.847142 
L 193.983609 392.662001 
L 201.333531 397.637975 
L 208.683453 402.747179 
L 216.033368 404.12905 
L 223.383289 404.060886 
L 230.733204 404.73633 
L 238.083126 406.102709 
L 245.433041 408.259171 
L 252.782963 411.08488 
L 260.132878 414.090294 
L 267.4828 417.036839 
L 274.832715 418.378431 
L 282.182636 416.479133 
L 282.182636 416.479133 
L 287.996754 417.442725 
L 293.810865 418.341251 
L 299.624983 416.519412 
L 305.439096 414.455901 
L 311.253212 412.801374 
L 317.067325 411.589913 
L 322.881443 410.620125 
L 328.695554 409.774271 
L 334.509671 409.008975 
L 340.323785 408.311843 
L 346.1379 407.670481 
L 351.952018 407.08489 
L 357.766131 406.55507 
L 363.580247 406.08102 
L 369.39436 405.662741 
L 375.208478 405.312626 
L 381.022591 405.074052 
L 386.836706 405.046166 
L 392.65082 405.207281 
L 398.464937 405.43656 
L 404.279053 405.678233 
L 410.093166 405.91061 
L 415.907284 406.127496 
L 421.721395 406.325791 
L 427.535513 406.502398 
L 433.349626 406.654218 
L 439.163741 406.778152 
L 444.977855 406.8773 
L 450.791972 406.945464 
L 456.606084 406.988841 
L 462.420201 407.004333 
L 462.420201 407.004333 
L 470.22377 407.21812 
L 478.027338 406.077922 
L 485.830912 403.122082 
L 493.63448 403.038426 
L 501.438049 403.42882 
L 509.241617 404.153837 
L 517.045191 405.213478 
L 524.848759 405.548101 
L 532.652328 401.876539 
L 540.455896 397.284762 
L 548.259465 392.43582 
L 556.063038 387.441256 
L 563.866607 382.356839 
L 571.670175 377.210454 
L 579.473744 372.042382 
L 587.277317 366.868112 
L 595.080886 361.734121 
L 602.884454 358.047067 
L 610.688023 353.126863 
L 618.491596 348.392561 
L 626.295164 343.890636 
L 634.098733 339.652073 
L 641.902301 335.710953 
L 649.70587 332.107554 
L 657.509443 328.879058 
L 665.313012 326.062644 
L 673.11658 323.698591 
L 680.920149 321.820982 
L 688.723722 320.457701 
L 696.527291 319.62734 
L 704.330859 319.351585 
" clip-path="url(#p252b21bb4e)" style="fill: none; stroke: #fa8c00; stroke-width: 1.5; stroke-linecap: square"/>
   </g>
   <g id="line2d_48">
    <path d="M 54.335156 319.348487 
L 61.685078 319.556077 
L 69.034993 320.172652 
L 76.384915 321.185817 
L 83.73483 322.570786 
L 91.084752 324.305871 
L 98.434667 326.366284 
L 105.784588 328.733435 
L 113.134503 331.534357 
L 120.484425 335.394919 
L 127.83434 339.763614 
L 135.184262 344.274834 
L 142.534184 348.863512 
L 149.884099 353.486273 
L 157.23402 358.112132 
L 164.583935 362.703909 
L 171.933857 367.243014 
L 179.283772 371.698463 
L 186.633694 376.045469 
L 193.983609 380.256147 
L 201.333531 384.299514 
L 208.683453 388.253028 
L 216.033368 392.231328 
L 223.383289 396.073301 
L 230.733204 399.729372 
L 238.083126 403.091098 
L 245.433041 405.904413 
L 252.782963 408.153826 
L 260.132878 410.226633 
L 267.4828 412.283947 
L 274.832715 414.335065 
L 282.182636 416.358297 
L 282.182636 416.358297 
L 287.996754 415.373017 
L 293.810865 414.331966 
L 299.624983 413.235145 
L 305.439096 411.977209 
L 311.253212 410.369157 
L 317.067325 408.472958 
L 322.881443 406.617037 
L 328.695554 405.074052 
L 334.509671 404.014411 
L 340.323785 403.435016 
L 346.1379 403.208836 
L 351.952018 403.205737 
L 357.766131 403.335869 
L 363.580247 403.540361 
L 369.39436 403.782033 
L 375.208478 404.020607 
L 381.022591 404.203411 
L 386.836706 404.218903 
L 392.65082 404.07328 
L 398.464937 403.884279 
L 404.279053 403.701476 
L 410.093166 403.540361 
L 415.907284 403.397836 
L 421.721395 403.277 
L 427.535513 403.177852 
L 433.349626 403.097295 
L 439.163741 403.035327 
L 444.977855 402.985754 
L 450.791972 402.95477 
L 456.606084 402.933081 
L 462.420201 402.926885 
L 462.420201 402.926885 
L 470.22377 402.911393 
L 478.027338 402.877311 
L 485.830912 402.883507 
L 493.63448 400.122864 
L 501.438049 397.095762 
L 509.241617 394.053167 
L 517.045191 390.995081 
L 524.848759 387.933896 
L 532.652328 384.87581 
L 540.455896 381.827018 
L 548.259465 378.799916 
L 556.063038 375.806895 
L 563.866607 372.854153 
L 571.670175 369.96028 
L 579.473744 367.128375 
L 587.277317 364.377026 
L 595.080886 361.696941 
L 602.884454 356.60013 
L 610.688023 351.528106 
L 618.491596 346.524247 
L 626.295164 341.622633 
L 634.098733 336.869741 
L 641.902301 332.318243 
L 649.70587 328.054893 
L 657.509443 324.835691 
L 665.313012 323.156377 
L 673.11658 321.802392 
L 680.920149 320.739653 
L 688.723722 319.971258 
L 696.527291 319.506503 
L 704.330859 319.348487 
" clip-path="url(#p252b21bb4e)" style="fill: none; stroke: #fa8c00; stroke-width: 1.5; stroke-linecap: square"/>
   </g>
   <g id="line2d_49">
    <path d="M 54.335156 311.645951 
L 61.685078 311.996066 
L 69.034993 313.068101 
L 76.384915 314.809382 
L 83.73483 317.157943 
L 91.084752 320.036324 
L 98.434667 323.367066 
L 105.784588 327.060317 
L 113.134503 330.998339 
L 120.484425 334.970443 
L 127.83434 339.233794 
L 135.184262 343.679948 
L 142.534184 348.225249 
L 149.884099 352.820125 
L 157.23402 357.430492 
L 164.583935 362.025367 
L 171.933857 366.589259 
L 179.283772 371.091183 
L 186.633694 375.521846 
L 193.983609 379.862655 
L 201.333531 384.091923 
L 208.683453 388.070224 
L 216.033368 391.580672 
L 223.383289 394.610873 
L 230.733204 396.912958 
L 238.083126 398.189484 
L 245.433041 398.418763 
L 252.782963 398.000484 
L 260.132878 397.380811 
L 267.4828 396.841696 
L 274.832715 396.503974 
L 282.182636 396.398629 
L 282.182636 396.398629 
L 287.996754 396.420318 
L 293.810865 396.469892 
L 299.624983 396.531859 
L 305.439096 396.572138 
L 311.253212 396.547351 
L 317.067325 396.380039 
L 322.881443 395.952465 
L 328.695554 395.106611 
L 334.509671 393.721642 
L 340.323785 391.809951 
L 346.1379 389.495472 
L 351.952018 386.917632 
L 357.766131 384.163186 
L 363.580247 381.284805 
L 369.39436 378.316571 
L 375.208478 375.280173 
L 381.022591 372.188005 
L 386.836706 369.049361 
L 392.65082 365.938602 
L 398.464937 365.796078 
L 404.279053 366.502505 
L 410.093166 367.17485 
L 415.907284 367.80072 
L 421.721395 368.370819 
L 427.535513 368.875852 
L 433.349626 369.31582 
L 439.163741 369.681427 
L 444.977855 369.969575 
L 450.791972 370.177166 
L 456.606084 370.3011 
L 462.420201 370.344477 
L 462.420201 370.344477 
L 470.22377 370.381658 
L 478.027338 370.474609 
L 485.830912 370.56756 
L 493.63448 370.573756 
L 501.438049 370.387855 
L 509.241617 369.90451 
L 517.045191 369.046263 
L 524.848759 367.775933 
L 532.652328 366.102816 
L 540.455896 364.070288 
L 548.259465 361.734121 
L 556.063038 359.162478 
L 563.866607 356.414228 
L 571.670175 353.538945 
L 579.473744 350.589302 
L 587.277317 347.605576 
L 595.080886 344.628047 
L 602.884454 341.693896 
L 610.688023 338.827908 
L 618.491596 336.064166 
L 626.295164 333.430556 
L 634.098733 330.951864 
L 641.902301 328.652877 
L 649.70587 326.533595 
L 657.509443 323.92787 
L 665.313012 320.44221 
L 673.11658 317.39032 
L 680.920149 314.902333 
L 688.723722 313.065002 
L 696.527291 311.961984 
L 704.330859 311.645951 
" clip-path="url(#p252b21bb4e)" style="fill: none; stroke: #fa8c00; stroke-width: 1.5; stroke-linecap: square"/>
   </g>
   <g id="line2d_50">
    <path d="M 54.335156 311.633558 
L 61.685078 311.844247 
L 69.034993 312.845018 
L 76.384915 314.539824 
L 83.73483 316.838811 
L 91.084752 319.658323 
L 98.434667 322.920902 
L 105.784588 326.518104 
L 113.134503 330.264027 
L 120.484425 333.579278 
L 127.83434 336.575397 
L 135.184262 339.593204 
L 142.534184 342.641995 
L 149.884099 345.693885 
L 157.23402 348.702397 
L 164.583935 351.614861 
L 171.933857 354.36311 
L 179.283772 356.872786 
L 186.633694 359.050937 
L 193.983609 360.78912 
L 201.333531 361.98199 
L 208.683453 362.539696 
L 216.033368 362.446745 
L 223.383289 361.7744 
L 230.733204 360.668283 
L 238.083126 359.320495 
L 245.433041 357.904542 
L 252.782963 356.572245 
L 260.132878 355.438243 
L 267.4828 354.576898 
L 274.832715 354.037782 
L 282.182636 353.85188 
L 282.182636 353.85188 
L 287.996754 353.898356 
L 293.810865 354.031585 
L 299.624983 354.251569 
L 305.439096 354.552111 
L 311.253212 354.93321 
L 317.067325 355.385571 
L 322.881443 355.909195 
L 328.695554 356.491687 
L 334.509671 357.133049 
L 340.323785 357.823984 
L 346.1379 358.555198 
L 351.952018 359.323593 
L 357.766131 360.116774 
L 363.580247 360.931644 
L 369.39436 361.755809 
L 375.208478 362.579975 
L 381.022591 363.401041 
L 386.836706 364.20042 
L 392.65082 364.913044 
L 398.464937 362.586171 
L 404.279053 359.342183 
L 410.093166 356.051719 
L 415.907284 352.742666 
L 421.721395 351.676828 
L 427.535513 351.924697 
L 433.349626 352.138484 
L 439.163741 352.311993 
L 444.977855 352.448321 
L 450.791972 352.547469 
L 456.606084 352.606337 
L 462.420201 352.624928 
L 462.420201 352.624928 
L 470.22377 352.265517 
L 478.027338 351.212073 
L 485.830912 349.511071 
L 493.63448 347.243068 
L 501.438049 344.485523 
L 509.241617 341.322092 
L 517.045191 337.817841 
L 524.848759 334.050229 
L 532.652328 330.096715 
L 540.455896 326.167988 
L 548.259465 323.26482 
L 556.063038 322.164901 
L 563.866607 321.405801 
L 571.670175 320.671489 
L 579.473744 319.934078 
L 587.277317 319.187372 
L 595.080886 318.437567 
L 602.884454 317.687763 
L 610.688023 316.950352 
L 618.491596 316.228433 
L 626.295164 315.531301 
L 634.098733 314.868251 
L 641.902301 314.248578 
L 649.70587 313.67538 
L 657.509443 313.161052 
L 665.313012 312.711789 
L 673.11658 312.333788 
L 680.920149 312.033247 
L 688.723722 311.816361 
L 696.527291 311.683132 
L 704.330859 311.633558 
" clip-path="url(#p252b21bb4e)" style="fill: none; stroke: #fa8c00; stroke-width: 1.5; stroke-linecap: square"/>
   </g>
   <g id="line2d_51">
    <path d="M 54.335156 311.295836 
L 61.685078 311.357803 
L 69.034993 311.116131 
L 76.384915 310.638983 
L 83.73483 309.963539 
L 91.084752 309.095997 
L 98.434667 308.033258 
L 105.784588 306.77842 
L 113.134503 305.331483 
L 120.484425 303.695546 
L 127.83434 301.883003 
L 135.184262 299.909344 
L 142.534184 297.824145 
L 149.884099 295.93724 
L 157.23402 296.941111 
L 164.583935 301.120805 
L 171.933857 305.597943 
L 179.283772 310.003818 
L 186.633694 314.254775 
L 193.983609 318.304338 
L 201.333531 322.115327 
L 208.683453 325.644365 
L 216.033368 328.857369 
L 223.383289 331.695472 
L 230.733204 334.109098 
L 238.083126 336.036281 
L 245.433041 337.405758 
L 252.782963 338.155563 
L 260.132878 338.23612 
L 267.4828 337.619546 
L 274.832715 336.305839 
L 282.182636 334.514984 
L 282.182636 334.514984 
L 287.996754 335.441395 
L 293.810865 336.532019 
L 299.624983 337.597857 
L 305.439096 338.629613 
L 311.253212 339.630385 
L 317.067325 340.593976 
L 322.881443 341.523486 
L 328.695554 342.418913 
L 334.509671 343.27716 
L 340.323785 344.098227 
L 346.1379 344.882113 
L 351.952018 345.631918 
L 357.766131 346.341443 
L 363.580247 347.016887 
L 369.39436 347.652052 
L 375.208478 348.250036 
L 381.022591 348.81084 
L 386.836706 349.334464 
L 392.65082 349.820907 
L 398.464937 350.263973 
L 404.279053 350.672958 
L 410.093166 351.041663 
L 415.907284 351.360795 
L 421.721395 349.365448 
L 427.535513 345.997525 
L 433.349626 342.601717 
L 439.163741 339.187318 
L 444.977855 335.757428 
L 450.791972 332.321341 
L 456.606084 328.919336 
L 462.420201 326.279529 
L 462.420201 326.279529 
L 470.22377 326.248546 
L 478.027338 326.149398 
L 485.830912 325.982086 
L 493.63448 325.752807 
L 501.438049 325.461561 
L 509.241617 325.108347 
L 517.045191 324.690068 
L 524.848759 324.21292 
L 532.652328 323.667608 
L 540.455896 323.013853 
L 548.259465 322.028573 
L 556.063038 320.97203 
L 563.866607 320.200537 
L 571.670175 319.503405 
L 579.473744 318.818666 
L 587.277317 318.140124 
L 595.080886 317.461582 
L 602.884454 316.786139 
L 610.688023 316.123089 
L 618.491596 315.47553 
L 626.295164 314.852759 
L 634.098733 314.260971 
L 641.902301 313.709462 
L 649.70587 313.198232 
L 657.509443 312.742772 
L 665.313012 312.343083 
L 673.11658 312.011558 
L 680.920149 311.742001 
L 688.723722 311.543705 
L 696.527291 311.398082 
L 704.330859 311.295836 
" clip-path="url(#p252b21bb4e)" style="fill: none; stroke: #fa8c00; stroke-width: 1.5; stroke-linecap: square"/>
   </g>
   <g id="line2d_52">
    <path d="M 54.335156 244.876184 
L 61.685078 245.260381 
L 69.034993 246.490432 
L 76.384915 248.495074 
L 83.73483 251.190652 
L 91.084752 254.478017 
L 98.434667 258.251826 
L 105.784588 262.41293 
L 113.134503 266.862182 
L 120.484425 271.515927 
L 127.83434 276.299802 
L 135.184262 281.130154 
L 142.534184 285.917128 
L 149.884099 290.307511 
L 157.23402 291.615021 
L 164.583935 289.675444 
L 171.933857 288.714951 
L 179.283772 291.255611 
L 186.633694 294.654517 
L 193.983609 298.152571 
L 201.333531 301.635134 
L 208.683453 305.065024 
L 216.033368 308.429848 
L 223.383289 311.711017 
L 230.733204 314.902333 
L 238.083126 317.9976 
L 245.433041 320.987522 
L 252.782963 323.862805 
L 260.132878 326.623448 
L 267.4828 329.260157 
L 274.832715 331.766734 
L 282.182636 333.960376 
L 282.182636 333.960376 
L 287.996754 332.937916 
L 293.810865 331.577734 
L 299.624983 330.078125 
L 305.439096 328.45768 
L 311.253212 326.728792 
L 317.067325 324.903855 
L 322.881443 322.992164 
L 328.695554 321.006112 
L 334.509671 318.954994 
L 340.323785 316.851205 
L 346.1379 314.707136 
L 351.952018 312.535182 
L 357.766131 310.344638 
L 363.580247 308.154094 
L 369.39436 305.975943 
L 375.208478 303.834973 
L 381.022591 301.752872 
L 386.836706 299.779213 
L 392.65082 297.98526 
L 398.464937 296.538323 
L 404.279053 295.819502 
L 410.093166 296.457766 
L 415.907284 298.524375 
L 421.721395 301.384166 
L 427.535513 304.581679 
L 433.349626 307.927913 
L 439.163741 311.348508 
L 444.977855 314.800087 
L 450.791972 318.257862 
L 456.606084 321.681556 
L 462.420201 324.324461 
L 462.420201 324.324461 
L 470.22377 324.293477 
L 478.027338 324.203625 
L 485.830912 324.054903 
L 493.63448 323.844214 
L 501.438049 323.577755 
L 509.241617 323.252427 
L 517.045191 322.862033 
L 524.848759 322.403475 
L 532.652328 321.851966 
L 540.455896 321.080473 
L 548.259465 319.363979 
L 556.063038 315.689318 
L 563.866607 311.202885 
L 571.670175 306.468583 
L 579.473744 301.610347 
L 587.277317 296.683946 
L 595.080886 291.726562 
L 602.884454 286.769178 
L 610.688023 281.852073 
L 618.491596 277.012426 
L 626.295164 272.290518 
L 634.098733 267.745216 
L 641.902301 263.429194 
L 649.70587 259.407516 
L 657.509443 255.748347 
L 665.313012 252.522949 
L 673.11658 249.799486 
L 680.920149 247.633729 
L 688.723722 246.065956 
L 696.527291 245.124053 
L 704.330859 244.876184 
" clip-path="url(#p252b21bb4e)" style="fill: none; stroke: #fa8c00; stroke-width: 1.5; stroke-linecap: square"/>
   </g>
   <g id="line2d_53">
    <path d="M 54.335156 244.798725 
L 61.685078 245.086873 
L 69.034993 245.839775 
L 76.384915 247.057433 
L 83.73483 248.718157 
L 91.084752 250.772373 
L 98.434667 253.176704 
L 105.784588 255.878478 
L 113.134503 258.828122 
L 120.484425 261.982257 
L 127.83434 265.297508 
L 135.184262 268.733595 
L 142.534184 272.256436 
L 149.884099 275.819556 
L 157.23402 279.370282 
L 164.583935 282.719615 
L 171.933857 284.467093 
L 179.283772 282.42527 
L 186.633694 279.264938 
L 193.983609 275.760687 
L 201.333531 272.014764 
L 208.683453 268.051955 
L 216.033368 263.887752 
L 223.383289 259.528352 
L 230.733204 254.976854 
L 238.083126 250.239454 
L 245.433041 245.31925 
L 252.782963 240.216243 
L 260.132878 234.936629 
L 267.4828 229.483506 
L 274.832715 223.863072 
L 282.182636 218.220949 
L 282.182636 218.220949 
L 287.996754 220.969199 
L 293.810865 223.987007 
L 299.624983 227.066781 
L 305.439096 230.199229 
L 311.253212 233.378151 
L 317.067325 236.603549 
L 322.881443 239.869226 
L 328.695554 243.175181 
L 334.509671 246.512121 
L 340.323785 249.883142 
L 346.1379 253.27895 
L 351.952018 256.696447 
L 357.766131 260.132534 
L 363.580247 263.577915 
L 369.39436 267.026396 
L 375.208478 270.468679 
L 381.022591 273.883078 
L 386.836706 277.238607 
L 392.65082 280.4733 
L 398.464937 283.435337 
L 404.279053 285.756013 
L 410.093166 286.824949 
L 415.907284 286.580178 
L 421.721395 285.681652 
L 427.535513 284.597224 
L 433.349626 283.534485 
L 439.163741 282.592582 
L 444.977855 281.817991 
L 450.791972 281.241695 
L 456.606084 280.891579 
L 462.420201 280.770743 
L 462.420201 280.770743 
L 470.22377 280.714973 
L 478.027338 280.541464 
L 485.830912 280.256415 
L 493.63448 279.856726 
L 501.438049 279.342397 
L 509.241617 278.716527 
L 517.045191 277.982215 
L 524.848759 277.133263 
L 532.652328 276.178966 
L 540.455896 275.119325 
L 548.259465 273.957438 
L 556.063038 272.693306 
L 563.866607 271.333123 
L 571.670175 269.883088 
L 579.473744 268.346299 
L 587.277317 266.728953 
L 595.080886 265.040344 
L 602.884454 263.289768 
L 610.688023 261.486519 
L 618.491596 259.64609 
L 626.295164 257.787071 
L 634.098733 255.924954 
L 641.902301 254.087623 
L 649.70587 252.302965 
L 657.509443 250.608159 
L 665.313012 249.040387 
L 673.11658 247.652319 
L 680.920149 246.487334 
L 688.723722 245.610496 
L 696.527291 245.055889 
L 704.330859 244.798725 
" clip-path="url(#p252b21bb4e)" style="fill: none; stroke: #fa8c00; stroke-width: 1.5; stroke-linecap: square"/>
   </g>
   <g id="line2d_54">
    <path d="M 54.335156 165.338054 
L 61.685078 165.245103 
L 69.034993 165.195529 
L 76.384915 165.204824 
L 83.73483 165.23271 
L 91.084752 165.220316 
L 98.434667 165.11807 
L 105.784588 164.894988 
L 113.134503 164.554168 
L 120.484425 164.126593 
L 127.83434 163.661839 
L 135.184262 163.240461 
L 142.534184 162.949215 
L 149.884099 162.877952 
L 157.23402 163.097936 
L 164.583935 163.64015 
L 171.933857 164.516987 
L 179.283772 165.731547 
L 186.633694 167.280729 
L 193.983609 169.161437 
L 201.333531 171.379866 
L 208.683453 173.92982 
L 216.033368 176.820595 
L 223.383289 180.055288 
L 230.733204 183.636998 
L 238.083126 187.550233 
L 245.433041 191.804289 
L 252.782963 196.383672 
L 260.132878 201.275991 
L 267.4828 206.471949 
L 274.832715 211.949858 
L 282.182636 217.554801 
L 282.182636 217.554801 
L 287.996754 214.812748 
L 293.810865 211.816629 
L 299.624983 208.777132 
L 305.439096 205.700456 
L 311.253212 202.583501 
L 317.067325 199.429365 
L 322.881443 196.238049 
L 328.695554 193.009553 
L 334.509671 189.746974 
L 340.323785 186.447215 
L 346.1379 183.110276 
L 351.952018 179.745452 
L 357.766131 176.349644 
L 363.580247 172.92595 
L 369.39436 169.47747 
L 375.208478 166.013498 
L 381.022591 162.561919 
L 386.836706 159.209488 
L 392.65082 156.625452 
L 398.464937 157.384551 
L 404.279053 159.689735 
L 410.093166 162.069279 
L 415.907284 164.327987 
L 421.721395 166.410088 
L 427.535513 168.275304 
L 433.349626 169.905044 
L 439.163741 171.274522 
L 444.977855 172.362048 
L 450.791972 173.149032 
L 456.606084 173.629279 
L 462.420201 173.787296 
L 462.420201 173.787296 
L 470.22377 173.762509 
L 478.027338 173.688148 
L 485.830912 173.564213 
L 493.63448 173.390705 
L 501.438049 173.170721 
L 509.241617 172.904262 
L 517.045191 172.597524 
L 524.848759 172.250507 
L 532.652328 171.866309 
L 540.455896 171.44803 
L 548.259465 171.004964 
L 556.063038 170.537111 
L 563.866607 170.047569 
L 571.670175 169.548732 
L 579.473744 169.043699 
L 587.277317 168.538665 
L 595.080886 168.042927 
L 602.884454 167.559582 
L 610.688023 167.104122 
L 618.491596 166.676548 
L 626.295164 166.289252 
L 634.098733 165.948432 
L 641.902301 165.660284 
L 649.70587 165.427907 
L 657.509443 165.254398 
L 665.313012 165.13666 
L 673.11658 165.074693 
L 680.920149 165.056103 
L 688.723722 165.071595 
L 696.527291 165.167644 
L 704.330859 165.338054 
" clip-path="url(#p252b21bb4e)" style="fill: none; stroke: #fa8c00; stroke-width: 1.5; stroke-linecap: square"/>
   </g>
   <g id="line2d_55">
    <path d="M 54.335156 165.068496 
L 61.685078 164.885693 
L 69.034993 164.15138 
L 76.384915 162.946116 
L 83.73483 161.412426 
L 91.084752 159.702128 
L 98.434667 157.979437 
L 105.784588 156.389976 
L 113.134503 155.032892 
L 120.484425 153.91748 
L 127.83434 152.972479 
L 135.184262 152.086347 
L 142.534184 151.135149 
L 149.884099 150.016639 
L 157.23402 148.662653 
L 164.583935 147.036012 
L 171.933857 145.146009 
L 179.283772 143.011235 
L 186.633694 140.650281 
L 193.983609 138.097228 
L 201.333531 135.367569 
L 208.683453 132.482991 
L 216.033368 129.47138 
L 223.383289 126.351326 
L 230.733204 123.150715 
L 238.083126 119.909825 
L 245.433041 116.675132 
L 252.782963 113.520997 
L 260.132878 110.55896 
L 267.4828 107.978022 
L 274.832715 106.072527 
L 282.182636 105.285542 
L 282.182636 105.285542 
L 287.996754 105.514821 
L 293.810865 106.205757 
L 299.624983 107.380037 
L 305.439096 109.015974 
L 311.253212 111.067092 
L 317.067325 113.465226 
L 322.881443 116.142214 
L 328.695554 119.032988 
L 334.509671 122.078681 
L 340.323785 125.235915 
L 346.1379 128.458215 
L 351.952018 131.717695 
L 357.766131 134.98647 
L 363.580247 138.239753 
L 369.39436 141.449659 
L 375.208478 144.591402 
L 381.022591 147.621603 
L 386.836706 150.428721 
L 392.65082 152.334216 
L 398.464937 150.738558 
L 404.279053 147.429504 
L 410.093166 143.853991 
L 415.907284 140.188625 
L 421.721395 136.467488 
L 427.535513 132.709172 
L 433.349626 128.916773 
L 439.163741 125.096489 
L 444.977855 121.245221 
L 450.791972 117.366068 
L 456.606084 113.465226 
L 462.420201 109.771975 
L 462.420201 109.771975 
L 470.22377 109.905205 
L 478.027338 110.295599 
L 485.830912 110.946255 
L 493.63448 111.84788 
L 501.438049 112.988078 
L 509.241617 114.351359 
L 517.045191 115.928426 
L 524.848759 117.694494 
L 532.652328 119.637169 
L 540.455896 121.731664 
L 548.259465 123.968684 
L 556.063038 126.317244 
L 563.866607 128.764953 
L 571.670175 131.296317 
L 579.473744 133.892747 
L 587.277317 136.541849 
L 595.080886 139.23123 
L 602.884454 141.933004 
L 610.688023 144.634779 
L 618.491596 147.314865 
L 626.295164 149.93918 
L 634.098733 152.470544 
L 641.902301 154.871777 
L 649.70587 157.096403 
L 657.509443 159.107242 
L 665.313012 160.870212 
L 673.11658 162.372919 
L 680.920149 163.599871 
L 688.723722 164.523184 
L 696.527291 165.031316 
L 704.330859 165.068496 
" clip-path="url(#p252b21bb4e)" style="fill: none; stroke: #fa8c00; stroke-width: 1.5; stroke-linecap: square"/>
   </g>
   <g id="line2d_56">
    <path d="M 54.335156 154.927548 
L 61.685078 154.608416 
L 69.034993 153.654119 
L 76.384915 152.09874 
L 83.73483 150.134377 
L 91.084752 148.129735 
L 98.434667 146.326486 
L 105.784588 144.566615 
L 113.134503 142.599153 
L 120.484425 140.324953 
L 127.83434 137.747113 
L 135.184262 134.921404 
L 142.534184 131.903597 
L 149.884099 128.737068 
L 157.23402 125.455899 
L 164.583935 122.075583 
L 171.933857 118.617807 
L 179.283772 115.091868 
L 186.633694 111.503961 
L 193.983609 107.860284 
L 201.333531 104.167033 
L 208.683453 100.427306 
L 216.033368 96.644202 
L 223.383289 92.827016 
L 230.733204 88.975749 
L 238.083126 85.099694 
L 245.433041 81.208147 
L 252.782963 77.310404 
L 260.132878 73.418858 
L 267.4828 72.083462 
L 274.832715 72.421184 
L 282.182636 72.551315 
L 282.182636 72.551315 
L 287.996754 72.517233 
L 293.810865 72.411889 
L 299.624983 72.232184 
L 305.439096 71.975019 
L 311.253212 71.640396 
L 317.067325 71.228313 
L 322.881443 70.738772 
L 328.695554 70.174869 
L 334.509671 69.539704 
L 340.323785 68.842572 
L 346.1379 68.08967 
L 351.952018 67.296488 
L 357.766131 66.475421 
L 363.580247 65.641961 
L 369.39436 64.820894 
L 375.208478 64.040106 
L 381.022591 63.342974 
L 386.836706 62.837941 
L 392.65082 63.082712 
L 398.464937 65.617174 
L 404.279053 69.384786 
L 410.093166 73.369284 
L 415.907284 77.409552 
L 421.721395 81.46841 
L 427.535513 85.521072 
L 433.349626 89.570635 
L 439.163741 93.598509 
L 444.977855 97.604695 
L 450.791972 101.601586 
L 456.606084 105.570592 
L 462.420201 109.28863 
L 462.420201 109.28863 
L 470.22377 109.412565 
L 478.027338 109.787467 
L 485.830912 110.40714 
L 493.63448 111.25919 
L 501.438049 112.328126 
L 509.241617 113.598456 
L 517.045191 115.054687 
L 524.848759 116.672034 
L 532.652328 118.431905 
L 540.455896 120.309515 
L 548.259465 122.292468 
L 556.063038 124.343586 
L 563.866607 126.441179 
L 571.670175 128.569756 
L 579.473744 130.704529 
L 587.277317 132.820713 
L 595.080886 134.899716 
L 602.884454 136.910555 
L 610.688023 138.843934 
L 618.491596 140.681265 
L 626.295164 142.407054 
L 634.098733 144.021302 
L 641.902301 145.527108 
L 649.70587 146.955454 
L 657.509443 148.36521 
L 665.313012 149.833835 
L 673.11658 151.370624 
L 680.920149 152.826856 
L 688.723722 153.979448 
L 696.527291 154.688973 
L 704.330859 154.927548 
" clip-path="url(#p252b21bb4e)" style="fill: none; stroke: #fa8c00; stroke-width: 1.5; stroke-linecap: square"/>
   </g>
   <g id="line2d_57">
    <path d="M 54.335156 145.198681 
L 61.685078 145.06855 
L 69.034993 144.89814 
L 76.384915 144.42409 
L 83.73483 143.348957 
L 91.084752 141.291643 
L 98.434667 138.016671 
L 105.784588 133.694452 
L 113.134503 128.610035 
L 120.484425 122.961715 
L 127.83434 116.882723 
L 135.184262 110.466009 
L 142.534184 103.813819 
L 149.884099 97.29176 
L 157.23402 93.895952 
L 164.583935 91.330506 
L 171.933857 88.675207 
L 179.283772 85.905269 
L 186.633694 83.033084 
L 193.983609 80.102031 
L 201.333531 77.192666 
L 208.683453 74.469203 
L 216.033368 72.216692 
L 223.383289 70.763559 
L 230.733204 70.162476 
L 238.083126 70.174869 
L 245.433041 70.531181 
L 252.782963 71.048608 
L 260.132878 71.597019 
L 267.4828 69.552098 
L 274.832715 65.756601 
L 282.182636 62.7264 
L 282.182636 62.7264 
L 287.996754 63.705483 
L 293.810865 64.765124 
L 299.624983 65.394092 
L 305.439096 65.552109 
L 311.253212 65.273256 
L 317.067325 64.610206 
L 322.881443 63.634221 
L 328.695554 62.407268 
L 334.509671 60.978922 
L 340.323785 59.395657 
L 346.1379 57.691556 
L 351.952018 55.906898 
L 357.766131 54.072666 
L 363.580247 52.229139 
L 369.39436 50.487858 
L 375.208478 50.500251 
L 381.022591 52.817828 
L 386.836706 56.284899 
L 392.65082 59.37087 
L 398.464937 60.328265 
L 404.279053 60.170249 
L 410.093166 59.872805 
L 415.907284 59.584658 
L 421.721395 59.336788 
L 427.535513 59.135395 
L 433.349626 58.97428 
L 439.163741 58.850345 
L 444.977855 58.760492 
L 450.791972 58.698525 
L 456.606084 58.664443 
L 462.420201 58.65205 
L 462.420201 58.65205 
L 470.22377 58.388689 
L 478.027338 57.626491 
L 485.830912 59.271723 
L 493.63448 62.766678 
L 501.438049 66.184175 
L 509.241617 69.502524 
L 517.045191 72.709332 
L 524.848759 75.795304 
L 532.652328 78.763537 
L 540.455896 81.744165 
L 548.259465 87.057861 
L 556.063038 92.368458 
L 563.866607 97.53963 
L 571.670175 102.543489 
L 579.473744 107.361447 
L 587.277317 111.971814 
L 595.080886 116.352902 
L 602.884454 120.476826 
L 610.688023 124.321897 
L 618.491596 127.875722 
L 626.295164 131.122809 
L 634.098733 134.05696 
L 641.902301 136.678177 
L 649.70587 138.992656 
L 657.509443 140.997298 
L 665.313012 142.66112 
L 673.11658 143.906663 
L 680.920149 144.681254 
L 688.723722 145.046861 
L 696.527291 145.161501 
L 704.330859 145.198681 
" clip-path="url(#p252b21bb4e)" style="fill: none; stroke: #fa8c00; stroke-width: 1.5; stroke-linecap: square"/>
   </g>
   <g id="line2d_58">
    <path d="M 54.335156 145.000386 
L 61.685078 144.876451 
L 69.034993 144.135942 
L 76.384915 142.716891 
L 83.73483 140.551134 
L 91.084752 137.626277 
L 98.434667 133.970206 
L 105.784588 129.644889 
L 113.134503 124.73398 
L 120.484425 119.311841 
L 127.83434 113.462128 
L 135.184262 107.249906 
L 142.534184 100.755733 
L 149.884099 95.627938 
L 157.23402 89.644995 
L 164.583935 82.630297 
L 171.933857 75.680664 
L 179.283772 69.421967 
L 186.633694 65.824765 
L 193.983609 64.349943 
L 201.333531 63.470007 
L 208.683453 62.648941 
L 216.033368 61.477759 
L 223.383289 59.572264 
L 230.733204 56.842604 
L 238.083126 53.530452 
L 245.433041 49.951841 
L 252.782963 46.540541 
L 260.132878 45.626523 
L 267.4828 51.380187 
L 274.832715 56.941752 
L 282.182636 60.734151 
L 282.182636 60.734151 
L 287.996754 59.528887 
L 293.810865 57.781409 
L 299.624983 55.990554 
L 305.439096 54.208994 
L 311.253212 52.452221 
L 317.067325 50.72953 
L 322.881443 49.053315 
L 328.695554 48.384068 
L 334.509671 48.669117 
L 340.323785 48.926282 
L 346.1379 49.152462 
L 351.952018 49.347659 
L 357.766131 49.521168 
L 363.580247 49.682283 
L 369.39436 49.886775 
L 375.208478 49.329069 
L 381.022591 49.437512 
L 386.836706 49.595529 
L 392.65082 49.688479 
L 398.464937 49.76284 
L 404.279053 49.843398 
L 410.093166 49.927054 
L 415.907284 50.016906 
L 421.721395 50.112955 
L 427.535513 50.205906 
L 433.349626 50.292661 
L 439.163741 50.37012 
L 444.977855 50.435185 
L 450.791972 50.481661 
L 456.606084 50.512645 
L 462.420201 50.52194 
L 462.420201 50.52194 
L 470.22377 52.408844 
L 478.027338 55.73339 
L 485.830912 56.368555 
L 493.63448 54.74811 
L 501.438049 53.313567 
L 509.241617 58.980476 
L 517.045191 64.718648 
L 524.848759 70.422739 
L 532.652328 76.052468 
L 540.455896 81.459115 
L 548.259465 84.303414 
L 556.063038 86.893647 
L 563.866607 89.353749 
L 571.670175 91.68372 
L 579.473744 93.886657 
L 587.277317 95.962562 
L 595.080886 97.91763 
L 602.884454 99.779748 
L 610.688023 102.614752 
L 618.491596 109.09963 
L 626.295164 115.516344 
L 634.098733 121.558156 
L 641.902301 127.110426 
L 649.70587 132.04922 
L 657.509443 136.213422 
L 665.313012 139.460509 
L 673.11658 141.774988 
L 680.920149 143.327269 
L 688.723722 144.312549 
L 696.527291 144.851664 
L 704.330859 145.000386 
" clip-path="url(#p252b21bb4e)" style="fill: none; stroke: #fa8c00; stroke-width: 1.5; stroke-linecap: square"/>
   </g>
   <g id="line2d_59">
    <path d="M 54.335156 128.052329 
L 61.685078 127.16 
L 69.034993 124.647226 
L 76.384915 120.88581 
L 83.73483 116.247558 
L 91.084752 111.311862 
L 98.434667 108.287858 
L 105.784588 106.794446 
L 113.134503 105.363001 
L 120.484425 103.807622 
L 127.83434 102.100423 
L 135.184262 100.222814 
L 142.534184 98.146909 
L 149.884099 93.979608 
L 157.23402 87.076451 
L 164.583935 80.024572 
L 171.933857 72.895234 
L 179.283772 65.722519 
L 186.633694 60.253904 
L 193.983609 56.061816 
L 201.333531 52.6815 
L 208.683453 49.301184 
L 216.033368 45.827917 
L 223.383289 42.326764 
L 230.733204 38.992923 
L 238.083126 39.243891 
L 245.433041 41.831026 
L 252.782963 43.792291 
L 260.132878 45.17726 
L 267.4828 45.793835 
L 274.832715 45.781441 
L 282.182636 45.425129 
L 282.182636 45.425129 
L 287.996754 45.63272 
L 293.810865 46.035507 
L 299.624983 46.475475 
L 305.439096 46.906148 
L 311.253212 47.315132 
L 317.067325 47.696231 
L 322.881443 48.046346 
L 328.695554 47.404984 
L 334.509671 45.837212 
L 340.323785 44.337603 
L 346.1379 42.934044 
L 351.952018 41.682304 
L 357.766131 40.734204 
L 363.580247 40.712516 
L 369.39436 43.22529 
L 375.208478 45.691589 
L 381.022591 45.32908 
L 386.836706 43.705537 
L 392.65082 41.93637 
L 398.464937 42.199731 
L 404.279053 42.583928 
L 410.093166 42.94024 
L 415.907284 43.26247 
L 421.721395 43.553717 
L 427.535513 43.804684 
L 433.349626 44.02157 
L 439.163741 44.201275 
L 444.977855 44.337603 
L 450.791972 44.436751 
L 456.606084 44.498718 
L 462.420201 44.517308 
L 462.420201 44.517308 
L 470.22377 42.636601 
L 478.027338 39.671465 
L 485.830912 42.010731 
L 493.63448 47.519624 
L 501.438049 52.771353 
L 509.241617 50.915432 
L 517.045191 51.073449 
L 524.848759 54.10365 
L 532.652328 57.047097 
L 540.455896 59.885199 
L 548.259465 62.624154 
L 556.063038 65.260862 
L 563.866607 67.817014 
L 571.670175 70.370066 
L 579.473744 73.871219 
L 587.277317 80.63495 
L 595.080886 87.940895 
L 602.884454 95.11361 
L 610.688023 100.994307 
L 618.491596 102.840932 
L 626.295164 104.306459 
L 634.098733 105.638756 
L 641.902301 106.884299 
L 649.70587 108.185612 
L 657.509443 110.496992 
L 665.313012 114.605424 
L 673.11658 118.806808 
L 680.920149 122.512452 
L 688.723722 125.452801 
L 696.527291 127.376885 
L 704.330859 128.052329 
" clip-path="url(#p252b21bb4e)" style="fill: none; stroke: #fa8c00; stroke-width: 1.5; stroke-linecap: square"/>
   </g>
   <g id="line2d_60">
    <path d="M 54.335156 110.803731 
L 61.685078 110.707681 
L 69.034993 110.413337 
L 76.384915 109.9145 
L 83.73483 109.158499 
L 91.084752 107.832398 
L 98.434667 103.940852 
L 105.784588 98.08804 
L 113.134503 92.074114 
L 120.484425 86.701549 
L 127.83434 82.658182 
L 135.184262 79.689948 
L 142.534184 77.158584 
L 149.884099 74.744958 
L 157.23402 72.33443 
L 164.583935 69.905312 
L 171.933857 67.451406 
L 179.283772 64.681468 
L 186.633694 58.559099 
L 193.983609 51.618761 
L 201.333531 44.867423 
L 208.683453 38.029332 
L 216.033368 32.421291 
L 223.383289 32.904636 
L 230.733204 36.130034 
L 238.083126 36.36551 
L 245.433041 35.92864 
L 252.782963 39.327547 
L 260.132878 43.392602 
L 267.4828 43.098257 
L 274.832715 43.721028 
L 282.182636 44.371685 
L 282.182636 44.371685 
L 287.996754 44.083537 
L 293.810865 43.457667 
L 299.624983 42.670683 
L 305.439096 41.78455 
L 311.253212 40.858139 
L 317.067325 39.956515 
L 322.881443 39.147842 
L 328.695554 38.521972 
L 334.509671 38.134676 
L 340.323785 37.992151 
L 346.1379 38.060315 
L 351.952018 38.277201 
L 357.766131 38.664497 
L 363.580247 39.640482 
L 369.39436 40.11763 
L 375.208478 40.498729 
L 381.022591 40.923205 
L 386.836706 41.356976 
L 392.65082 41.756665 
L 398.464937 40.11763 
L 404.279053 38.419726 
L 410.093166 36.861248 
L 415.907284 35.485574 
L 421.721395 34.308195 
L 427.535513 33.33221 
L 433.349626 32.551422 
L 439.163741 31.953438 
L 444.977855 31.522765 
L 450.791972 31.240814 
L 456.606084 31.079699 
L 462.420201 31.027027 
L 462.420201 31.027027 
L 470.22377 32.387209 
L 478.027338 36.486346 
L 485.830912 38.881382 
L 493.63448 41.617238 
L 501.438049 44.758981 
L 509.241617 47.92551 
L 517.045191 49.171053 
L 524.848759 48.012264 
L 532.652328 47.646657 
L 540.455896 48.148592 
L 548.259465 49.502578 
L 556.063038 52.195057 
L 563.866607 57.824786 
L 571.670175 64.985108 
L 579.473744 71.361543 
L 587.277317 74.379351 
L 595.080886 76.71242 
L 602.884454 79.036193 
L 610.688023 81.586148 
L 618.491596 84.730988 
L 626.295164 88.789847 
L 634.098733 93.610903 
L 641.902301 98.7325 
L 649.70587 103.705376 
L 657.509443 107.380037 
L 665.313012 108.820777 
L 673.11658 109.598467 
L 680.920149 110.14068 
L 688.723722 110.512484 
L 696.527291 110.72937 
L 704.330859 110.803731 
" clip-path="url(#p252b21bb4e)" style="fill: none; stroke: #fa8c00; stroke-width: 1.5; stroke-linecap: square"/>
   </g>
   <g id="line2d_61">
    <path d="M 54.335156 87.569091 
L 61.685078 87.469943 
L 69.034993 87.169402 
L 76.384915 86.66127 
L 83.73483 85.942449 
L 91.084752 84.994349 
L 98.434667 83.776692 
L 105.784588 82.199624 
L 113.134503 80.049359 
L 120.484425 76.814666 
L 127.83434 72.136134 
L 135.184262 68.225998 
L 142.534184 66.432044 
L 149.884099 65.047075 
L 157.23402 63.792237 
L 164.583935 62.562186 
L 171.933857 61.205102 
L 179.283772 59.429739 
L 186.633694 56.610227 
L 193.983609 51.256252 
L 201.333531 44.356193 
L 208.683453 37.620348 
L 216.033368 31.129273 
L 223.383289 25.564609 
L 230.733204 27.005349 
L 238.083126 29.744304 
L 245.433041 32.470865 
L 252.782963 34.515786 
L 260.132878 34.748163 
L 267.4828 32.759013 
L 274.832715 29.648254 
L 282.182636 27.978235 
L 282.182636 27.978235 
L 287.996754 28.306662 
L 293.810865 29.019286 
L 299.624983 29.893025 
L 305.439096 30.825633 
L 311.253212 31.761339 
L 317.067325 32.681554 
L 322.881443 33.567686 
L 328.695554 34.407343 
L 334.509671 35.194328 
L 340.323785 35.925542 
L 346.1379 36.59169 
L 351.952018 37.195872 
L 357.766131 37.69161 
L 363.580247 37.759774 
L 369.39436 37.685413 
L 375.208478 37.769069 
L 381.022591 37.685413 
L 386.836706 37.391069 
L 392.65082 36.873642 
L 398.464937 36.130034 
L 404.279053 35.157147 
L 410.093166 33.961178 
L 415.907284 32.582406 
L 421.721395 31.290388 
L 427.535513 30.754371 
L 433.349626 30.5096 
L 439.163741 30.33919 
L 444.977855 30.218353 
L 450.791972 30.137796 
L 456.606084 30.088222 
L 462.420201 30.07273 
L 462.420201 30.07273 
L 470.22377 31.711765 
L 478.027338 33.961178 
L 485.830912 33.76908 
L 493.63448 30.748174 
L 501.438049 28.130055 
L 509.241617 26.890709 
L 517.045191 26.686217 
L 524.848759 27.417431 
L 532.652328 29.245467 
L 540.455896 33.02857 
L 548.259465 40.266351 
L 556.063038 46.909246 
L 563.866607 50.946416 
L 571.670175 53.536649 
L 579.473744 55.931685 
L 587.277317 58.351508 
L 595.080886 61.013004 
L 602.884454 65.096649 
L 610.688023 70.184164 
L 618.491596 74.707777 
L 626.295164 78.134569 
L 634.098733 80.545097 
L 641.902301 82.304969 
L 649.70587 83.668249 
L 657.509443 84.76507 
L 665.313012 85.648105 
L 673.11658 86.351433 
L 680.920149 86.890549 
L 688.723722 87.268549 
L 696.527291 87.49473 
L 704.330859 87.569091 
" clip-path="url(#p252b21bb4e)" style="fill: none; stroke: #fa8c00; stroke-width: 1.5; stroke-linecap: square"/>
   </g>
   <g id="line2d_62">
    <path d="M 54.335156 80.269343 
L 61.685078 80.098933 
L 69.034993 79.612489 
L 76.384915 78.828603 
L 83.73483 77.778257 
L 91.084752 76.507928 
L 98.434667 75.073385 
L 105.784588 73.521104 
L 113.134503 71.903757 
L 120.484425 70.227542 
L 127.83434 68.322047 
L 135.184262 64.325156 
L 142.534184 57.632688 
L 149.884099 50.35153 
L 157.23402 43.051782 
L 164.583935 37.484019 
L 171.933857 34.367064 
L 179.283772 31.39883 
L 186.633694 28.365531 
L 193.983609 25.273363 
L 201.333531 22.218375 
L 208.683453 21.920932 
L 216.033368 25.0131 
L 223.383289 22.522015 
L 230.733204 17.930237 
L 238.083126 19.355485 
L 245.433041 21.77221 
L 252.782963 20.808619 
L 260.132878 18.958895 
L 267.4828 19.513502 
L 274.832715 20.944947 
L 282.182636 20.40893 
L 282.182636 20.40893 
L 287.996754 21.542931 
L 293.810865 22.627359 
L 299.624983 23.609541 
L 305.439096 24.458493 
L 311.253212 25.143231 
L 317.067325 25.611085 
L 322.881443 25.800085 
L 328.695554 25.651363 
L 334.509671 25.14633 
L 340.323785 24.452296 
L 346.1379 25.852757 
L 351.952018 29.651353 
L 357.766131 33.33221 
L 363.580247 35.897657 
L 369.39436 36.346919 
L 375.208478 35.680771 
L 381.022591 34.841114 
L 386.836706 34.029342 
L 392.65082 33.285735 
L 398.464937 32.628881 
L 404.279053 32.055684 
L 410.093166 31.563044 
L 415.907284 31.123076 
L 421.721395 30.5096 
L 427.535513 29.109139 
L 433.349626 27.451513 
L 439.163741 25.806282 
L 444.977855 24.284984 
L 450.791972 23.008458 
L 456.606084 22.128522 
L 462.420201 21.809391 
L 462.420201 21.809391 
L 470.22377 21.586308 
L 478.027338 21.508849 
L 485.830912 21.617292 
L 493.63448 21.54603 
L 501.438049 20.709471 
L 509.241617 19.702502 
L 517.045191 20.929455 
L 524.848759 21.92403 
L 532.652328 25.456166 
L 540.455896 31.144765 
L 548.259465 33.747391 
L 556.063038 36.219887 
L 563.866607 38.760546 
L 571.670175 41.930173 
L 579.473744 46.918541 
L 587.277317 52.64432 
L 595.080886 58.205885 
L 602.884454 62.177989 
L 610.688023 64.712452 
L 618.491596 66.958766 
L 626.295164 69.059458 
L 634.098733 71.023821 
L 641.902301 72.839463 
L 649.70587 74.49399 
L 657.509443 75.968812 
L 665.313012 77.248437 
L 673.11658 78.317373 
L 680.920149 79.160128 
L 688.723722 79.773604 
L 696.527291 80.145408 
L 704.330859 80.269343 
" clip-path="url(#p252b21bb4e)" style="fill: none; stroke: #fa8c00; stroke-width: 1.5; stroke-linecap: square"/>
   </g>
   <g id="line2d_63">
    <path d="M 54.335156 80.260048 
L 61.685078 79.913031 
L 69.034993 78.865783 
L 76.384915 77.130699 
L 83.73483 74.738761 
L 91.084752 71.714757 
L 98.434667 68.098965 
L 105.784588 63.925467 
L 113.134503 59.250034 
L 120.484425 54.112945 
L 127.83434 48.573068 
L 135.184262 46.428999 
L 142.534184 44.253947 
L 149.884099 41.883698 
L 157.23402 39.200514 
L 164.583935 34.633524 
L 171.933857 27.59094 
L 179.283772 20.514274 
L 186.633694 13.828002 
L 193.983609 13.239313 
L 201.333531 17.502663 
L 208.683453 19.696306 
L 216.033368 20.14247 
L 223.383289 21.666866 
L 230.733204 16.204448 
L 238.083126 10.738932 
L 245.433041 8.935684 
L 252.782963 11.547605 
L 260.132878 12.907788 
L 267.4828 14.819479 
L 274.832715 17.66068 
L 282.182636 20.241618 
L 282.182636 20.241618 
L 287.996754 18.695534 
L 293.810865 16.663006 
L 299.624983 14.491052 
L 305.439096 12.517394 
L 311.253212 11.494933 
L 317.067325 11.702524 
L 322.881443 12.421344 
L 328.695554 13.425215 
L 334.509671 16.873695 
L 340.323785 20.833406 
L 346.1379 22.363998 
L 351.952018 21.199013 
L 357.766131 19.779961 
L 363.580247 18.444566 
L 369.39436 18.453861 
L 375.208478 19.008469 
L 381.022591 19.501109 
L 386.836706 19.919388 
L 392.65082 20.260208 
L 398.464937 20.508077 
L 404.279053 20.656799 
L 410.093166 20.693979 
L 415.907284 20.604127 
L 421.721395 20.387241 
L 427.535513 20.055716 
L 433.349626 19.637437 
L 439.163741 19.185075 
L 444.977855 18.769894 
L 450.791972 18.45696 
L 456.606084 18.283451 
L 462.420201 18.230779 
L 462.420201 18.230779 
L 470.22377 17.279581 
L 478.027338 14.946512 
L 485.830912 12.901591 
L 493.63448 13.450002 
L 501.438049 15.380283 
L 509.241617 16.08671 
L 517.045191 13.16805 
L 524.848759 16.910875 
L 532.652328 19.550682 
L 540.455896 18.20909 
L 548.259465 22.562293 
L 556.063038 28.232301 
L 563.866607 33.896113 
L 571.670175 38.949546 
L 579.473744 42.156354 
L 587.277317 44.529702 
L 595.080886 46.760524 
L 602.884454 49.068806 
L 610.688023 51.683827 
L 618.491596 54.763601 
L 626.295164 58.181098 
L 634.098733 61.697743 
L 641.902301 65.130731 
L 649.70587 68.365424 
L 657.509443 71.321264 
L 665.313012 73.933186 
L 673.11658 76.148517 
L 680.920149 77.917684 
L 688.723722 79.209702 
L 696.527291 79.996687 
L 704.330859 80.260048 
" clip-path="url(#p252b21bb4e)" style="fill: none; stroke: #fa8c00; stroke-width: 1.5; stroke-linecap: square"/>
   </g>
   <g id="line2d_64">
    <path d="M 54.335156 57.734934 
L 61.685078 57.645081 
L 69.034993 57.372425 
L 76.384915 56.916965 
L 83.73483 56.278702 
L 91.084752 55.451439 
L 98.434667 54.435175 
L 105.784588 53.223714 
L 113.134503 51.817056 
L 120.484425 50.212103 
L 127.83434 48.415051 
L 135.184262 42.689273 
L 142.534184 36.542116 
L 149.884099 30.233845 
L 157.23402 23.925574 
L 164.583935 17.914746 
L 171.933857 12.833427 
L 179.283772 9.865193 
L 186.633694 10.178128 
L 193.983609 7.913223 
L 201.333531 9.905472 
L 208.683453 13.502674 
L 216.033368 13.942642 
L 223.383289 12.582459 
L 230.733204 13.800117 
L 238.083126 9.809423 
L 245.433041 5.787745 
L 252.782963 8.535995 
L 260.132878 11.761393 
L 267.4828 10.847375 
L 274.832715 7.138632 
L 282.182636 4.910907 
L 282.182636 4.910907 
L 287.996754 5.326088 
L 293.810865 6.113073 
L 299.624983 6.91555 
L 305.439096 7.395796 
L 311.253212 6.828795 
L 317.067325 5.738171 
L 322.881443 8.365585 
L 328.695554 12.381066 
L 334.509671 13.98292 
L 340.323785 14.853561 
L 346.1379 15.668431 
L 351.952018 16.436826 
L 357.766131 17.161843 
L 363.580247 17.83109 
L 369.39436 17.360138 
L 375.208478 16.610334 
L 381.022591 16.133186 
L 386.836706 15.826448 
L 392.65082 15.609562 
L 398.464937 15.426759 
L 404.279053 15.250152 
L 410.093166 15.067348 
L 415.907284 14.872151 
L 421.721395 14.673856 
L 427.535513 14.478659 
L 433.349626 14.292757 
L 439.163741 14.125445 
L 444.977855 13.98292 
L 450.791972 13.877576 
L 456.606084 13.81251 
L 462.420201 13.790822 
L 462.420201 13.790822 
L 470.22377 12.235442 
L 478.027338 9.425225 
L 485.830912 8.034059 
L 493.63448 5.970548 
L 501.438049 3.724234 
L 509.241617 5.366367 
L 517.045191 10.487965 
L 524.848759 8.994553 
L 532.652328 11.504228 
L 540.455896 16.830318 
L 548.259465 17.83109 
L 556.063038 20.114585 
L 563.866607 23.457721 
L 571.670175 27.191251 
L 579.473744 31.098289 
L 587.277317 35.064196 
L 595.080886 38.974333 
L 602.884454 42.661388 
L 610.688023 45.87749 
L 618.491596 48.424347 
L 626.295164 50.379415 
L 634.098733 51.940991 
L 641.902301 53.236107 
L 649.70587 54.32983 
L 657.509443 55.253143 
L 665.313012 56.021538 
L 673.11658 56.641211 
L 680.920149 57.121457 
L 688.723722 57.462277 
L 696.527291 57.66677 
L 704.330859 57.734934 
" clip-path="url(#p252b21bb4e)" style="fill: none; stroke: #fa8c00; stroke-width: 1.5; stroke-linecap: square"/>
   </g>
   <g id="line2d_65">
    <path d="M 184.352097 -1 
L 186.633694 0.563901 
L 193.983609 5.326088 
L 201.333531 3.206807 
L 208.683453 1.090623 
L 216.033368 2.10069 
L 223.383289 4.67853 
L 230.733204 5.45622 
L 238.083126 6.339254 
L 245.433041 4.263349 
L 252.579969 -1 
M 274.458408 -1 
L 274.832715 -0.889232 
L 282.182636 -0.83656 
L 282.182636 -0.83656 
L 287.996754 0.30054 
L 293.810865 1.481017 
L 299.624983 2.608822 
L 305.439096 3.683955 
L 311.253212 4.706415 
L 317.067325 4.991465 
L 322.881443 6.34545 
L 328.695554 7.197501 
L 334.509671 7.897731 
L 340.323785 8.470929 
L 346.1379 8.895405 
L 351.952018 9.118487 
L 357.766131 9.065815 
L 363.580247 8.625847 
L 369.39436 7.696338 
L 375.208478 6.258696 
L 381.022591 4.412071 
L 386.836706 2.320674 
L 392.65082 0.139425 
L 395.785929 -1 
M 442.121492 -1 
L 444.977855 -0.607281 
L 450.791972 0.09295 
L 456.606084 0.582491 
L 462.420201 0.759098 
L 462.420201 0.759098 
L 470.22377 1.422148 
L 478.027338 2.06351 
L 485.830912 -0.127034 
L 487.441651 -1 
M 509.498549 -1 
L 517.045191 1.57087 
L 524.848759 6.240106 
L 532.652328 7.172714 
L 540.455896 8.669224 
L 548.259465 8.291224 
L 556.063038 4.845842 
L 563.866607 -0.074362 
L 565.163947 -1 
" clip-path="url(#p252b21bb4e)" style="fill: none; stroke: #fa8c00; stroke-width: 1.5; stroke-linecap: square"/>
   </g>
   <g id="line2d_66">
    <path d="M 232.262336 -1 
L 238.083126 1.149492 
L 245.433041 3.374118 
L 251.687565 -1 
M 310.468682 -1 
L 311.253212 -0.421379 
L 317.067325 3.739725 
L 322.881443 2.435314 
L 328.695554 -0.21069 
L 330.392174 -1 
M 515.710945 -1 
L 517.045191 -0.436871 
L 524.848759 2.432215 
L 532.652328 2.342363 
L 538.704163 -1 
" clip-path="url(#p252b21bb4e)" style="fill: none; stroke: #fa8c00; stroke-width: 1.5; stroke-linecap: square"/>
   </g>
   <g id="line2d_67">
    <path clip-path="url(#p252b21bb4e)" style="fill: none; stroke: #fa8c00; stroke-width: 1.5; stroke-linecap: square"/>
   </g>
   <g id="line2d_68">
    <path clip-path="url(#p252b21bb4e)" style="fill: none; stroke: #fa8c00; stroke-width: 1.5; stroke-linecap: square"/>
   </g>
   <g id="line2d_69">
    <path clip-path="url(#p252b21bb4e)" style="fill: none; stroke: #fa8c00; stroke-width: 1.5; stroke-linecap: square"/>
   </g>
   <g id="line2d_70">
    <path clip-path="url(#p252b21bb4e)" style="fill: none; stroke: #fa8c00; stroke-width: 1.5; stroke-linecap: square"/>
   </g>
   <g id="line2d_71">
    <path clip-path="url(#p252b21bb4e)" style="fill: none; stroke: #fa8c00; stroke-width: 1.5; stroke-linecap: square"/>
   </g>
   <g id="line2d_72">
    <path clip-path="url(#p252b21bb4e)" style="fill: none; stroke: #fa8c00; stroke-width: 1.5; stroke-linecap: square"/>
   </g>
   <g id="line2d_73">
    <path clip-path="url(#p252b21bb4e)" style="fill: none; stroke: #fa8c00; stroke-width: 1.5; stroke-linecap: square"/>
   </g>
   <g id="line2d_74">
    <path clip-path="url(#p252b21bb4e)" style="fill: none; stroke: #fa8c00; stroke-width: 1.5; stroke-linecap: square"/>
   </g>
   <g id="line2d_75">
    <path clip-path="url(#p252b21bb4e)" style="fill: none; stroke: #fa8c00; stroke-width: 1.5; stroke-linecap: square"/>
   </g>
   <g id="line2d_76">
    <path clip-path="url(#p252b21bb4e)" style="fill: none; stroke: #fa8c00; stroke-width: 1.5; stroke-linecap: square"/>
   </g>
   <g id="line2d_77">
    <path clip-path="url(#p252b21bb4e)" style="fill: none; stroke: #fa8c00; stroke-width: 1.5; stroke-linecap: square"/>
   </g>
   <g id="line2d_78">
    <path clip-path="url(#p252b21bb4e)" style="fill: none; stroke: #fa8c00; stroke-width: 1.5; stroke-linecap: square"/>
   </g>
   <g id="line2d_79">
    <path clip-path="url(#p252b21bb4e)" style="fill: none; stroke: #fa8c00; stroke-width: 1.5; stroke-linecap: square"/>
   </g>
   <g id="line2d_80">
    <path clip-path="url(#p252b21bb4e)" style="fill: none; stroke: #fa8c00; stroke-width: 1.5; stroke-linecap: square"/>
   </g>
   <g id="line2d_81">
    <path clip-path="url(#p252b21bb4e)" style="fill: none; stroke: #fa8c00; stroke-width: 1.5; stroke-linecap: square"/>
   </g>
   <g id="line2d_82">
    <path clip-path="url(#p252b21bb4e)" style="fill: none; stroke: #fa8c00; stroke-width: 1.5; stroke-linecap: square"/>
   </g>
   <g id="line2d_83">
    <path clip-path="url(#p252b21bb4e)" style="fill: none; stroke: #fa8c00; stroke-width: 1.5; stroke-linecap: square"/>
   </g>
   <g id="line2d_84">
    <path clip-path="url(#p252b21bb4e)" style="fill: none; stroke: #fa8c00; stroke-width: 1.5; stroke-linecap: square"/>
   </g>
   <g id="line2d_85">
    <path clip-path="url(#p252b21bb4e)" style="fill: none; stroke: #fa8c00; stroke-width: 1.5; stroke-linecap: square"/>
   </g>
   <g id="line2d_86">
    <path clip-path="url(#p252b21bb4e)" style="fill: none; stroke: #fa8c00; stroke-width: 1.5; stroke-linecap: square"/>
   </g>
   <g id="line2d_87">
    <path clip-path="url(#p252b21bb4e)" style="fill: none; stroke: #fa8c00; stroke-width: 1.5; stroke-linecap: square"/>
   </g>
   <g id="line2d_88">
    <path clip-path="url(#p252b21bb4e)" style="fill: none; stroke: #fa8c00; stroke-width: 1.5; stroke-linecap: square"/>
   </g>
   <g id="line2d_89">
    <path clip-path="url(#p252b21bb4e)" style="fill: none; stroke: #fa8c00; stroke-width: 1.5; stroke-linecap: square"/>
   </g>
   <g id="line2d_90">
    <path clip-path="url(#p252b21bb4e)" style="fill: none; stroke: #fa8c00; stroke-width: 1.5; stroke-linecap: square"/>
   </g>
   <g id="line2d_91">
    <path clip-path="url(#p252b21bb4e)" style="fill: none; stroke: #fa8c00; stroke-width: 1.5; stroke-linecap: square"/>
   </g>
   <g id="line2d_92">
    <path clip-path="url(#p252b21bb4e)" style="fill: none; stroke: #fa8c00; stroke-width: 1.5; stroke-linecap: square"/>
   </g>
   <g id="line2d_93">
    <path clip-path="url(#p252b21bb4e)" style="fill: none; stroke: #fa8c00; stroke-width: 1.5; stroke-linecap: square"/>
   </g>
   <g id="line2d_94">
    <path clip-path="url(#p252b21bb4e)" style="fill: none; stroke: #fa8c00; stroke-width: 1.5; stroke-linecap: square"/>
   </g>
   <g id="line2d_95">
    <path clip-path="url(#p252b21bb4e)" style="fill: none; stroke: #fa8c00; stroke-width: 1.5; stroke-linecap: square"/>
   </g>
   <g id="line2d_96">
    <path clip-path="url(#p252b21bb4e)" style="fill: none; stroke: #fa8c00; stroke-width: 1.5; stroke-linecap: square"/>
   </g>
   <g id="line2d_97">
    <path clip-path="url(#p252b21bb4e)" style="fill: none; stroke: #fa8c00; stroke-width: 1.5; stroke-linecap: square"/>
   </g>
   <g id="line2d_98">
    <path clip-path="url(#p252b21bb4e)" style="fill: none; stroke: #fa8c00; stroke-width: 1.5; stroke-linecap: square"/>
   </g>
   <g id="line2d_99">
    <path clip-path="url(#p252b21bb4e)" style="fill: none; stroke: #fa8c00; stroke-width: 1.5; stroke-linecap: square"/>
   </g>
   <g id="line2d_100">
    <path clip-path="url(#p252b21bb4e)" style="fill: none; stroke: #fa8c00; stroke-width: 1.5; stroke-linecap: square"/>
   </g>
   <g id="line2d_101">
    <path clip-path="url(#p252b21bb4e)" style="fill: none; stroke: #fa8c00; stroke-width: 1.5; stroke-linecap: square"/>
   </g>
   <g id="line2d_102">
    <path clip-path="url(#p252b21bb4e)" style="fill: none; stroke: #fa8c00; stroke-width: 1.5; stroke-linecap: square"/>
   </g>
   <g id="line2d_103">
    <path clip-path="url(#p252b21bb4e)" style="fill: none; stroke: #fa8c00; stroke-width: 1.5; stroke-linecap: square"/>
   </g>
   <g id="line2d_104">
    <path clip-path="url(#p252b21bb4e)" style="fill: none; stroke: #fa8c00; stroke-width: 1.5; stroke-linecap: square"/>
   </g>
   <g id="line2d_105">
    <path clip-path="url(#p252b21bb4e)" style="fill: none; stroke: #fa8c00; stroke-width: 1.5; stroke-linecap: square"/>
   </g>
   <g id="line2d_106">
    <path clip-path="url(#p252b21bb4e)" style="fill: none; stroke: #fa8c00; stroke-width: 1.5; stroke-linecap: square"/>
   </g>
   <g id="line2d_107">
    <path clip-path="url(#p252b21bb4e)" style="fill: none; stroke: #fa8c00; stroke-width: 1.5; stroke-linecap: square"/>
   </g>
   <g id="line2d_108">
    <path clip-path="url(#p252b21bb4e)" style="fill: none; stroke: #fa8c00; stroke-width: 1.5; stroke-linecap: square"/>
   </g>
   <g id="line2d_109">
    <path clip-path="url(#p252b21bb4e)" style="fill: none; stroke: #fa8c00; stroke-width: 1.5; stroke-linecap: square"/>
   </g>
   <g id="line2d_110">
    <path clip-path="url(#p252b21bb4e)" style="fill: none; stroke: #fa8c00; stroke-width: 1.5; stroke-linecap: square"/>
   </g>
   <g id="line2d_111">
    <path clip-path="url(#p252b21bb4e)" style="fill: none; stroke: #fa8c00; stroke-width: 1.5; stroke-linecap: square"/>
   </g>
   <g id="line2d_112">
    <path clip-path="url(#p252b21bb4e)" style="fill: none; stroke: #fa8c00; stroke-width: 1.5; stroke-linecap: square"/>
   </g>
   <g id="line2d_113">
    <path clip-path="url(#p252b21bb4e)" style="fill: none; stroke: #fa8c00; stroke-width: 1.5; stroke-linecap: square"/>
   </g>
   <g id="line2d_114">
    <path clip-path="url(#p252b21bb4e)" style="fill: none; stroke: #fa8c00; stroke-width: 1.5; stroke-linecap: square"/>
   </g>
   <g id="line2d_115">
    <path clip-path="url(#p252b21bb4e)" style="fill: none; stroke: #fa8c00; stroke-width: 1.5; stroke-linecap: square"/>
   </g>
   <g id="line2d_116">
    <path clip-path="url(#p252b21bb4e)" style="fill: none; stroke: #fa8c00; stroke-width: 1.5; stroke-linecap: square"/>
   </g>
   <g id="line2d_117">
    <path clip-path="url(#p252b21bb4e)" style="fill: none; stroke: #fa8c00; stroke-width: 1.5; stroke-linecap: square"/>
   </g>
   <g id="line2d_118">
    <path clip-path="url(#p252b21bb4e)" style="fill: none; stroke: #fa8c00; stroke-width: 1.5; stroke-linecap: square"/>
   </g>
   <g id="line2d_119">
    <path clip-path="url(#p252b21bb4e)" style="fill: none; stroke: #fa8c00; stroke-width: 1.5; stroke-linecap: square"/>
   </g>
   <g id="line2d_120">
    <path clip-path="url(#p252b21bb4e)" style="fill: none; stroke: #fa8c00; stroke-width: 1.5; stroke-linecap: square"/>
   </g>
   <g id="line2d_121">
    <path clip-path="url(#p252b21bb4e)" style="fill: none; stroke: #fa8c00; stroke-width: 1.5; stroke-linecap: square"/>
   </g>
  </g>
 </g>
 <defs>
  <clipPath id="p252b21bb4e">
   <rect x="54.335156" y="31.9875" width="649.995703" height="371.803809"/>
  </clipPath>
 </defs>
</svg>
